<svg width="1177" height="308" viewBox="0 0 1177 308" fill="none" xmlns="http://www.w3.org/2000/svg">
<path d="M480.022 112.232C480.857 112.231 481.691 112.231 482.55 112.231C485.298 112.232 488.046 112.247 490.794 112.262C492.703 112.265 494.612 112.268 496.521 112.27C501.538 112.277 506.556 112.296 511.573 112.317C516.696 112.336 521.819 112.345 526.941 112.354C536.988 112.375 547.034 112.407 557.081 112.447C557.081 116.304 555.509 117.951 553.343 121.11C552.302 122.642 552.302 122.642 551.24 124.203C549.486 126.688 549.486 126.688 548.537 127.638C546.256 127.726 544.003 127.754 541.722 127.742C540.243 127.743 538.764 127.743 537.286 127.744C536.497 127.742 535.709 127.741 534.897 127.74C530.735 127.736 526.572 127.761 522.41 127.78C517.107 127.803 511.805 127.818 506.503 127.804C502.223 127.793 497.945 127.809 493.666 127.844C492.035 127.852 490.405 127.85 488.775 127.838C486.488 127.822 484.204 127.841 481.917 127.868C481.247 127.855 480.577 127.842 479.886 127.829C476.096 127.916 473.931 128.691 471.222 131.222C469.161 133.567 468.077 135.207 468.055 138.413C468.037 139.173 468.019 139.934 468.001 140.717C468.018 141.924 468.018 141.924 468.036 143.154C468.03 143.997 468.025 144.839 468.019 145.707C468.016 147.482 468.026 149.257 468.05 151.031C468.08 153.739 468.05 156.442 468.014 159.15C468.017 160.879 468.025 162.608 468.036 164.338C468.024 165.142 468.013 165.946 468.001 166.775C468.09 170.561 468.48 173.503 470.822 176.564C475.638 180.654 482.381 179.721 488.343 179.662C489.705 179.666 491.066 179.671 492.428 179.678C495.275 179.687 498.122 179.675 500.969 179.648C504.609 179.615 508.246 179.634 511.886 179.668C514.696 179.689 517.505 179.682 520.315 179.668C521.657 179.664 522.998 179.668 524.339 179.682C532.568 179.986 532.568 179.986 539.85 176.781C542.863 172.101 542.863 172.101 542.841 160.867C528.117 160.867 513.392 160.867 498.222 160.867C498.222 156.167 498.222 151.468 498.222 146.626C517.959 146.626 537.695 146.626 558.03 146.626C558.089 151.697 558.148 156.769 558.208 161.994C558.247 164.383 558.247 164.383 558.287 166.82C558.295 168.093 558.302 169.366 558.308 170.639C558.33 171.617 558.33 171.617 558.353 172.615C558.356 179.178 555.618 182.541 551.148 187.034C550.457 187.741 549.767 188.447 549.056 189.174C543.83 193.656 539.914 195.516 533.012 195.567C532.349 195.576 531.686 195.586 531.003 195.596C528.83 195.622 526.658 195.621 524.485 195.616C522.961 195.624 521.437 195.632 519.913 195.641C516.726 195.655 513.539 195.654 510.352 195.644C506.286 195.633 502.222 195.666 498.156 195.71C495.01 195.738 491.865 195.739 488.72 195.733C487.222 195.734 485.724 195.744 484.226 195.763C475.514 195.861 468.89 195.541 462.147 189.349C461.345 188.661 460.544 187.973 459.718 187.264C458.835 186.358 458.835 186.358 457.934 185.432C457.329 184.823 456.723 184.213 456.099 183.586C453.245 180.204 452.415 177.52 452.333 173.113C452.311 172.15 452.29 171.186 452.268 170.193C452.252 168.639 452.252 168.639 452.235 167.053C452.222 165.98 452.208 164.908 452.195 163.803C452.173 161.533 452.157 159.264 452.145 156.994C452.12 153.534 452.049 150.077 451.977 146.618C451.961 144.41 451.948 142.203 451.938 139.995C451.91 138.966 451.881 137.937 451.852 136.877C451.883 131.526 452.318 128.33 455.887 124.209C457 123.112 458.135 122.035 459.299 120.992C460.006 120.289 460.714 119.587 461.442 118.863C462.027 118.352 462.612 117.84 463.215 117.313C463.805 116.787 464.395 116.26 465.002 115.718C469.824 112.22 474.29 112.182 480.022 112.232Z" fill="#13202E"/>
<path d="M609.93 112.221C611.039 112.218 611.039 112.218 612.171 112.216C614.617 112.212 617.062 112.222 619.508 112.233C621.204 112.234 622.901 112.234 624.597 112.234C628.152 112.236 631.706 112.244 635.26 112.256C639.827 112.272 644.393 112.276 648.959 112.275C652.461 112.276 655.963 112.281 659.465 112.288C661.149 112.291 662.834 112.293 664.518 112.293C666.866 112.295 669.214 112.304 671.562 112.314C672.265 112.313 672.967 112.313 673.691 112.312C678.488 112.343 678.488 112.343 679.546 113.401C679.64 115.615 679.669 117.831 679.665 120.047C679.668 121.868 679.668 121.868 679.672 123.726C679.546 126.693 679.546 126.693 678.597 127.642C676.409 127.735 674.218 127.761 672.028 127.762C671.341 127.763 670.654 127.765 669.947 127.767C668.45 127.771 666.952 127.773 665.455 127.773C662.274 127.776 659.092 127.797 655.91 127.816C649.981 127.852 644.052 127.882 638.122 127.88C634.003 127.879 629.884 127.901 625.765 127.939C624.195 127.949 622.625 127.95 621.055 127.943C618.855 127.934 616.656 127.954 614.456 127.98C613.205 127.984 611.953 127.987 610.664 127.991C606.495 128.757 605.119 129.923 602.65 133.338C601.88 136.502 601.88 136.502 601.878 139.806C601.833 140.909 601.788 142.012 601.741 143.148C601.721 144.402 601.721 144.402 601.7 145.681C602.602 145.679 603.504 145.676 604.433 145.674C612.913 145.655 621.393 145.641 629.873 145.631C634.233 145.627 638.593 145.62 642.953 145.609C647.157 145.599 651.361 145.593 655.565 145.591C657.173 145.589 658.78 145.585 660.388 145.58C662.632 145.573 664.875 145.572 667.119 145.573C667.79 145.569 668.462 145.566 669.153 145.563C673.742 145.572 673.742 145.572 674.799 146.63C674.799 151.33 674.799 156.029 674.799 160.871C650.677 160.871 626.554 160.871 601.7 160.871C601.335 173.075 601.335 173.075 605.108 177.328C608.862 179.162 611.355 179.515 615.528 179.536C616.224 179.546 616.919 179.556 617.635 179.566C619.916 179.593 622.196 179.587 624.477 179.581C626.065 179.593 627.653 179.608 629.242 179.624C633.409 179.662 637.575 179.672 641.743 179.676C646 179.685 650.257 179.72 654.515 179.753C662.859 179.815 671.202 179.844 679.546 179.859C679.546 184.872 679.546 189.885 679.546 195.05C669.684 195.243 659.823 195.4 649.96 195.492C645.379 195.537 640.8 195.597 636.219 195.694C631.794 195.787 627.369 195.838 622.942 195.86C621.259 195.876 619.577 195.907 617.894 195.953C603.084 196.345 603.084 196.345 597.209 191.14C595.838 189.613 594.485 188.069 593.156 186.505C591.87 185.464 590.583 184.425 589.293 183.388C585.768 179.776 585.697 176.209 585.612 171.315C585.628 170.228 585.645 169.141 585.662 168.021C585.657 166.887 585.653 165.754 585.649 164.585C585.649 162.195 585.665 159.804 585.697 157.413C585.739 153.762 585.716 150.115 585.686 146.463C585.694 144.135 585.705 141.808 585.721 139.48C585.712 138.393 585.704 137.306 585.695 136.186C585.819 130.15 586.384 126.537 590.782 122.233C591.252 121.825 591.722 121.417 592.207 120.996C592.906 120.324 593.604 119.652 594.324 118.96C594.937 118.438 595.551 117.915 596.182 117.377C596.803 116.842 597.423 116.307 598.062 115.756C602.12 112.477 604.896 112.183 609.93 112.221Z" fill="#15222F"/>
<path d="M719.475 111.848C726.543 112.119 729.774 115.292 734.608 120.045C736.147 121.392 737.709 122.709 739.274 124.027C745.179 129.004 750.981 134.105 756.814 139.167C761.9 143.579 767.008 147.966 772.125 152.343C774.382 154.273 776.634 156.21 778.882 158.15C779.456 158.645 780.031 159.14 780.623 159.65C781.695 160.574 782.766 161.5 783.836 162.427C788.536 166.472 793.359 170.277 798.213 174.16C798.213 154.109 798.213 134.058 798.213 113.399C803.226 113.399 808.238 113.399 813.403 113.399C813.424 123.78 813.442 134.162 813.452 144.544C813.457 149.364 813.464 154.184 813.474 159.004C813.485 163.652 813.49 168.299 813.493 172.947C813.495 174.724 813.498 176.501 813.503 178.279C813.51 180.759 813.511 183.239 813.511 185.72C813.514 186.462 813.517 187.204 813.521 187.969C813.511 193.04 813.511 193.04 812.453 194.098C799.11 195.693 799.11 195.693 793.5 192.492C791.132 190.285 788.989 187.956 786.821 185.553C785.186 184.158 783.523 182.793 781.837 181.459C777.204 177.707 772.669 173.855 768.151 169.967C764.421 166.757 760.677 163.567 756.917 160.394C752.607 156.756 748.319 153.093 744.042 149.417C739.73 145.715 735.404 142.029 731.048 138.38C730.132 137.613 729.217 136.845 728.274 136.055C726.209 134.276 726.209 134.276 724.165 133.336C724.165 153.388 724.165 173.439 724.165 194.098C719.152 194.098 714.14 194.098 708.975 194.098C708.933 183.733 708.898 173.367 708.877 163.002C708.867 158.189 708.854 153.377 708.832 148.564C708.812 143.923 708.8 139.281 708.795 134.64C708.792 132.866 708.785 131.092 708.775 129.318C708.761 126.84 708.759 124.363 708.76 121.885C708.753 121.146 708.746 120.407 708.739 119.645C708.77 111.683 712.274 111.878 719.475 111.848Z" fill="#121F2D"/>
<path d="M1030.68 111.892C1040.61 111.757 1047.49 113.125 1055.33 119.331C1056.32 120.361 1056.32 120.361 1057.32 121.412C1058 122.096 1058.67 122.78 1059.37 123.484C1064.06 129.331 1064.5 134.357 1064.57 141.598C1064.59 142.576 1064.6 143.555 1064.62 144.563C1064.64 146.631 1064.65 148.698 1064.66 150.766C1064.68 153.903 1064.76 157.036 1064.83 160.172C1065.06 176.965 1065.06 176.966 1060.84 183.2C1059.4 184.648 1057.93 186.063 1056.43 187.454C1055.71 188.129 1054.99 188.803 1054.25 189.498C1046.78 195.689 1040.06 196.147 1030.77 195.991C1029.32 195.992 1027.86 195.995 1026.41 196C1023.38 196.003 1020.36 195.979 1017.33 195.936C1013.48 195.882 1009.62 195.887 1005.77 195.911C1002.78 195.924 999.783 195.909 996.79 195.886C995.37 195.877 993.949 195.876 992.528 195.884C982.168 195.913 975.296 194.126 967.522 187.062C966.945 186.369 966.367 185.676 965.771 184.962C965.174 184.264 964.577 183.567 963.962 182.849C961.36 179.341 960.314 176.789 960.274 172.399C960.262 171.487 960.25 170.574 960.237 169.634C960.235 168.654 960.234 167.674 960.231 166.664C960.225 165.65 960.218 164.636 960.212 163.592C960.202 161.449 960.198 159.305 960.198 157.162C960.194 153.889 960.16 150.615 960.124 147.342C960.118 145.258 960.114 143.174 960.112 141.09C960.099 140.114 960.085 139.137 960.071 138.131C960.108 132.386 960.609 129.212 964.348 124.794C965.17 123.619 965.17 123.619 966.009 122.421C971.791 115.996 977.878 112.244 986.626 112.161C987.849 112.146 989.073 112.131 990.334 112.115C991.663 112.109 992.993 112.104 994.322 112.1C995.698 112.091 997.073 112.082 998.448 112.073C1001.33 112.058 1004.21 112.051 1007.09 112.048C1010.76 112.043 1014.43 112.007 1018.1 111.964C1020.94 111.935 1023.78 111.929 1026.63 111.928C1027.98 111.924 1029.33 111.912 1030.68 111.892ZM996.511 126.792C989.966 126.703 984.176 126.336 978.777 130.459C975.683 133.703 974.826 136.375 974.686 140.805C974.701 141.625 974.716 142.422 974.731 143.218C974.717 144.94 974.707 146.662 974.702 148.384C974.751 151.074 974.791 153.755 974.75 156.445C974.718 158.21 974.705 159.975 974.71 161.74C974.717 162.604 974.724 163.443 974.731 164.282C974.629 169.569 975.024 173.105 978.782 177.049C983.23 180.446 987.335 180.633 992.807 180.66C994.64 180.617 994.64 180.617 996.437 180.574C999.655 180.562 1002.87 180.556 1006.09 180.503C1009.45 180.438 1012.8 180.383 1016.16 180.367C1018.79 180.357 1021.43 180.342 1024.06 180.317C1025.34 180.304 1026.58 180.29 1027.82 180.277C1029.07 180.266 1030.28 180.255 1031.48 180.244C1032.63 180.222 1033.75 180.201 1034.86 180.18C1039.78 180.1 1041.73 179.045 1045.65 176.029C1048.32 172.674 1048.49 170.905 1048.6 166.741C1048.59 165.886 1048.59 165.056 1048.59 164.227C1048.61 162.451 1048.62 160.675 1048.63 158.899C1048.61 156.112 1048.6 153.33 1048.65 150.543C1048.69 148.72 1048.71 146.897 1048.71 145.073C1048.71 144.181 1048.71 143.316 1048.71 142.45C1048.82 137.542 1048.85 133.685 1045.33 129.97C1041.23 127 1041.23 126.999 1031.86 126.825C1030.01 126.838 1028.16 126.851 1026.31 126.842C1023.68 126.823 1021.06 126.812 1018.44 126.829C1015.05 126.858 1011.67 126.87 1008.28 126.827C1005.63 126.792 1002.98 126.774 1000.33 126.779C999.054 126.786 997.782 126.79 996.511 126.792Z" fill="#1765DE"/>
<path d="M370.062 111.921C371.946 111.864 371.946 111.864 373.859 112.036C374.863 112.095 374.863 112.095 375.887 112.156C378.974 112.514 381.158 113.181 383.657 115.036C385.32 117.251 386.693 119.516 388.002 121.955C389.646 124.923 391.504 127.749 393.339 130.603C395.052 133.269 396.743 135.95 398.434 138.63C402.815 145.521 407.35 152.305 411.892 159.09C413.51 161.511 415.128 163.931 416.746 166.352C417.332 167.229 417.332 167.229 417.93 168.123C421.537 173.523 425.125 178.936 428.683 184.368C429.199 185.148 429.714 185.928 430.245 186.731C430.704 187.435 431.162 188.138 431.635 188.863C432.031 189.467 432.428 190.072 432.836 190.694C433.667 192.201 433.667 192.201 433.667 194.1C407.038 194.1 380.409 194.1 352.974 194.1C353.6 192.533 354.227 190.967 354.872 189.353C355.15 188.521 355.427 187.69 355.712 186.833C357.278 183.536 358.499 181.975 361.518 179.859C368.886 178.183 376.754 178.974 384.242 179.265C386.362 179.313 388.481 179.356 390.6 179.395C395.781 179.499 400.958 179.658 406.137 179.859C405.836 179.409 405.536 178.96 405.226 178.497C398.836 168.934 392.48 159.351 386.2 149.715C384.836 147.623 383.471 145.532 382.106 143.44C381.523 142.545 380.939 141.649 380.338 140.726C379.766 139.855 379.195 138.983 378.606 138.085C377.946 137.054 377.287 136.023 376.607 134.961C375.074 132.333 375.074 132.333 372.91 131.439C372.688 132.079 372.467 132.718 372.239 133.377C370.695 136.908 368.685 139.953 366.55 143.151C366.106 143.823 365.662 144.496 365.205 145.189C363.762 147.373 362.313 149.553 360.865 151.733C359.873 153.232 358.881 154.732 357.89 156.233C356.401 158.488 354.911 160.742 353.419 162.996C349.188 169.389 344.991 175.805 340.81 182.232C339.696 183.943 338.583 185.654 337.469 187.365C337.021 188.053 336.574 188.742 336.112 189.451C335.096 191.006 334.068 192.554 333.037 194.1C331.166 194.423 331.166 194.423 328.906 194.378C328.099 194.369 327.291 194.359 326.459 194.35C325.614 194.326 324.77 194.302 323.9 194.278C323.048 194.265 322.197 194.252 321.319 194.239C319.212 194.205 317.106 194.158 315 194.1C315.59 191.136 316.577 189.058 318.241 186.545C318.721 185.814 319.201 185.082 319.696 184.329C320.222 183.539 320.748 182.749 321.289 181.935C322.424 180.211 323.559 178.486 324.694 176.762C325.287 175.864 325.88 174.967 326.491 174.042C328.819 170.513 331.126 166.971 333.432 163.428C336.46 158.775 339.496 154.127 342.531 149.478C343.225 148.414 343.919 147.351 344.613 146.288C346.399 143.552 348.185 140.816 349.972 138.08C350.978 136.541 351.983 135.001 352.987 133.462C354.248 131.533 355.515 129.609 356.789 127.69C358.093 125.681 359.35 123.641 360.569 121.579C365.884 112.838 365.884 112.838 370.062 111.921Z" fill="#111F2D"/>
<path d="M831.44 112.448C834.016 112.242 836.574 112.092 839.154 111.973C839.876 111.91 840.598 111.846 841.342 111.781C844.517 111.671 846.686 111.676 849.154 113.81C850.697 115.812 851.99 117.866 853.275 120.043C853.775 120.834 854.275 121.625 854.79 122.44C856.436 125.063 858.033 127.711 859.624 130.368C860.799 132.315 861.975 134.262 863.151 136.209C864.017 137.648 864.017 137.648 864.9 139.116C867.261 143.033 869.64 146.938 872.025 150.84C872.646 151.859 872.646 151.859 873.28 152.899C875.415 156.395 877.573 159.873 879.764 163.334C880.208 164.036 880.652 164.739 881.109 165.463C881.955 166.798 882.805 168.132 883.659 169.462C886.502 173.95 886.502 173.95 886.502 176.058C887.129 176.058 887.755 176.058 888.401 176.058C888.663 175.361 888.925 174.664 889.195 173.946C890.224 171.491 891.376 169.374 892.784 167.12C893.276 166.329 893.768 165.538 894.275 164.723C894.803 163.881 895.332 163.04 895.877 162.173C896.428 161.289 896.98 160.406 897.548 159.495C899.241 156.785 900.94 154.079 902.641 151.374C903.374 150.207 903.374 150.207 904.121 149.016C904.583 148.28 905.046 147.544 905.522 146.786C905.978 146.06 906.433 145.334 906.903 144.587C907.822 143.134 908.749 141.687 909.686 140.246C912.363 136.107 914.806 131.93 917.1 127.564C924.776 113.475 924.776 113.475 929.58 111.538C934.686 110.668 939.397 111.322 944.412 112.448C943.902 116.934 941.844 120.144 939.428 123.841C938.556 125.205 937.684 126.57 936.813 127.935C936.349 128.659 935.885 129.382 935.407 130.127C932.929 134.019 930.516 137.952 928.095 141.88C921.804 152.056 915.472 162.206 909.118 172.343C907.413 175.068 905.716 177.797 904.02 180.527C902.987 182.182 901.954 183.837 900.92 185.493C900.448 186.257 899.975 187.022 899.489 187.809C899.054 188.502 898.62 189.195 898.172 189.91C897.796 190.515 897.419 191.121 897.031 191.745C895.363 194.004 893.883 194.142 891.13 194.723C887.154 195.136 883.661 195.473 879.857 194.097C876.16 190.351 874.054 186.042 871.682 181.38C869.209 176.74 866.305 172.361 863.481 167.929C858.131 159.399 852.87 150.817 847.665 142.199C844.987 137.776 842.273 133.385 839.469 129.04C838.936 128.213 838.404 127.385 837.855 126.533C836.849 124.977 835.836 123.427 834.814 121.882C834.369 121.193 833.924 120.504 833.465 119.795C833.073 119.198 832.68 118.601 832.275 117.986C831.44 116.246 831.44 116.246 831.44 112.448Z" fill="#1664DD"/>
<path d="M1072.57 112.45C1088.09 110.342 1088.09 110.342 1093.66 113.725C1097.49 117.03 1100.58 120.931 1103.59 124.988C1105.05 126.962 1106.64 128.787 1108.29 130.607C1108.77 131.158 1109.25 131.708 1109.74 132.276C1110.32 132.939 1110.9 133.602 1111.5 134.286C1112.15 135.033 1112.15 135.033 1112.81 135.794C1114.32 137.517 1115.84 139.225 1117.37 140.932C1117.86 141.491 1118.34 142.051 1118.84 142.627C1120.4 144.399 1120.4 144.399 1122.89 146.628C1126.75 147.056 1126.75 147.056 1129.04 144.47C1129.91 143.498 1130.76 142.515 1131.61 141.525C1132.07 141.008 1132.52 140.49 1133 139.957C1133.93 138.895 1134.87 137.83 1135.8 136.761C1137.68 134.606 1139.6 132.489 1141.52 130.37C1142.2 129.611 1142.88 128.852 1143.58 128.07C1145.05 126.435 1146.52 124.803 1148 123.175C1148.76 122.338 1149.52 121.501 1150.3 120.638C1151.32 119.511 1151.32 119.511 1152.37 118.361C1154.23 116.348 1154.23 116.348 1155.47 114.24C1157.06 112.45 1157.06 112.45 1159.22 112.019C1160.45 112.048 1160.45 112.048 1161.7 112.079C1162.59 112.091 1163.48 112.103 1164.4 112.116C1165.33 112.148 1166.25 112.18 1167.21 112.212C1168.15 112.229 1169.09 112.247 1170.05 112.264C1172.37 112.309 1174.68 112.372 1177 112.45C1175.21 116.322 1172.62 119.117 1169.7 122.181C1168.66 123.292 1167.62 124.403 1166.58 125.515C1166.08 126.048 1165.58 126.581 1165.07 127.13C1163.45 128.87 1161.88 130.648 1160.33 132.446C1157.63 135.561 1154.87 138.61 1152.08 141.644C1151.64 142.123 1151.2 142.602 1150.75 143.096C1148.41 145.637 1146.07 148.173 1143.73 150.708C1143.26 151.217 1142.79 151.726 1142.31 152.251C1141 153.671 1139.69 155.09 1138.37 156.508C1137.65 157.32 1136.92 158.133 1136.18 158.97C1135.67 159.504 1135.17 160.037 1134.65 160.587C1132.78 163.674 1132.93 166.164 1132.88 169.751C1132.86 170.751 1132.86 170.751 1132.83 171.772C1132.79 173.893 1132.76 176.014 1132.74 178.136C1132.7 180.268 1132.66 182.4 1132.62 184.532C1132.58 186.458 1132.56 188.385 1132.53 190.312C1132.38 193.149 1132.38 193.149 1131.43 194.098C1126.73 194.098 1122.03 194.098 1117.19 194.098C1117.19 183.759 1117.19 173.42 1117.19 162.768C1116.25 162.455 1115.31 162.141 1114.34 161.819C1112.91 160.398 1112.91 160.398 1111.38 158.555C1108.77 155.483 1106.13 152.461 1103.43 149.476C1100.89 146.667 1098.37 143.847 1095.89 140.991C1093.22 137.926 1090.5 134.915 1087.76 131.912C1072.57 115.245 1072.57 115.245 1072.57 112.45Z" fill="#1564DE"/>
<path d="M133.772 0C135.699 0.731962 137.456 1.54382 139.221 2.60652C139.688 2.88687 140.155 3.16722 140.637 3.45607C141.382 3.90868 141.382 3.90868 142.142 4.37043C142.665 4.68592 143.187 5.00141 143.725 5.32646C148.674 8.32633 153.566 11.411 158.447 14.5187C160.786 16.006 163.131 17.4842 165.474 18.9632C168.255 20.719 171.036 22.4753 173.814 24.2341C178.987 27.5065 184.169 30.761 189.362 34.0005C194.496 37.2034 199.608 40.4368 204.708 43.6925C208.701 46.2384 212.713 48.7543 216.731 51.26C248.422 71.0424 248.422 71.0424 250.833 80.0313C251.212 82.5164 251.186 84.9658 251.183 87.4762C251.185 88.0534 251.187 88.6305 251.188 89.2251C251.194 91.1608 251.195 93.0964 251.195 95.032C251.198 96.4192 251.201 97.8063 251.204 99.1935C251.212 102.963 251.216 106.733 251.219 110.503C251.22 112.859 251.223 115.214 251.225 117.569C251.233 124.095 251.239 130.62 251.241 137.145C251.241 137.771 251.241 137.771 251.241 138.41C251.241 138.829 251.241 139.247 251.241 139.678C251.242 140.526 251.242 141.373 251.242 142.221C251.242 142.852 251.242 142.852 251.243 143.495C251.245 150.307 251.255 157.118 251.269 163.93C251.283 170.928 251.291 177.927 251.291 184.926C251.292 188.853 251.295 192.78 251.306 196.708C251.316 200.402 251.317 204.097 251.312 207.792C251.311 209.146 251.314 210.501 251.32 211.856C251.327 213.708 251.324 215.56 251.318 217.412C251.325 218.213 251.325 218.213 251.332 219.029C251.277 226.139 248.52 230.87 243.542 235.802C241.489 237.713 239.27 239.339 236.989 240.966C235.992 241.69 234.994 242.414 233.997 243.138C233.491 243.502 232.986 243.867 232.465 244.242C230.073 245.974 227.699 247.73 225.323 249.485C224.385 250.176 223.447 250.868 222.509 251.559C221.812 252.072 221.812 252.072 221.101 252.596C216.879 255.707 216.879 255.707 215.472 256.744C214.534 257.436 213.596 258.127 212.659 258.818C210.309 260.551 207.957 262.281 205.6 264.004C199.561 268.425 193.619 272.953 187.728 277.569C185.881 279.015 184.031 280.457 182.177 281.893C181.593 282.347 181.009 282.802 180.407 283.27C178.93 284.358 177.435 285.314 175.844 286.226C178.39 280.747 182.811 275.956 186.475 271.179C191.725 264.333 196.872 257.412 201.979 250.46C202.63 249.575 203.281 248.691 203.933 247.808C204.57 246.943 205.202 246.075 205.831 245.204C207.348 243.126 208.719 241.317 210.843 239.818C213.158 238.11 215.361 236.316 217.546 234.448C220.008 232.349 222.484 230.271 224.99 228.225C225.515 227.795 226.04 227.364 226.58 226.92C227.416 226.245 228.26 225.58 229.122 224.938C231.404 223.211 232.524 221.377 233.323 218.67C233.564 216.813 233.566 214.981 233.553 213.11C233.558 212.289 233.558 212.289 233.562 211.45C233.571 209.62 233.567 207.791 233.562 205.961C233.566 204.647 233.57 203.332 233.575 202.018C233.585 198.453 233.585 194.888 233.581 191.322C233.579 188.346 233.583 185.369 233.587 182.393C233.595 174.971 233.593 167.55 233.586 160.128C233.58 153.685 233.588 147.242 233.602 140.8C233.617 134.179 233.622 127.559 233.618 120.939C233.616 117.224 233.618 113.509 233.628 109.794C233.637 106.302 233.635 102.81 233.624 99.3183C233.621 98.0364 233.623 96.7545 233.629 95.4727C233.637 93.7236 233.63 91.9751 233.62 90.226C233.626 89.7181 233.631 89.2102 233.637 88.6869C233.598 85.5116 233.063 83.7032 230.953 81.1863C229.676 80.1749 228.47 79.3063 227.101 78.4455C226.715 78.1956 226.33 77.9456 225.932 77.688C222.303 75.3588 218.595 73.1578 214.888 70.9563C210.607 68.408 206.403 65.7506 202.207 63.065C196.419 59.3614 190.591 55.7248 184.76 52.0896C182.95 50.9603 181.141 49.8292 179.333 48.6974C173.672 45.1552 168.007 41.621 162.326 38.1116C159.348 36.2709 156.371 34.4262 153.408 32.5606C152.939 32.2666 152.471 31.9725 151.988 31.6696C151.058 31.0783 150.134 30.4775 149.217 29.8672C146.812 28.2831 144.508 27.0022 141.825 25.9425C135.644 23.2648 135.644 23.2648 133.772 20.1484C132.376 13.5605 133.088 6.64764 133.772 0Z" fill="#1461DC"/>
<path d="M115.994 0C116.404 5.09815 116.66 10.1882 116.529 15.3037C116.531 15.947 116.531 15.9472 116.533 16.6035C116.436 19.0296 115.955 20.4697 114.338 22.2158C112.969 23.4603 111.746 24.3275 109.972 24.9102C106.476 26.2434 103.496 28.2721 100.365 30.2969C99.1353 31.0651 97.9036 31.8316 96.671 32.5957C91.0298 36.1135 85.4427 39.716 79.8478 43.3066C76.5556 45.416 73.2542 47.5113 69.9542 49.6084C67.1085 51.4179 64.266 53.2323 61.4278 55.0537C55.3051 58.983 49.1721 62.8937 42.9982 66.7422C38.2489 69.7037 33.5048 72.6731 28.7765 75.668C28.2345 76.0095 27.6923 76.3513 27.1339 76.7031C21.3794 80.1856 21.3794 80.186 18.2218 85.9277C17.9798 87.7753 17.9791 89.5985 17.9923 91.46C17.9891 92.0051 17.9858 92.5507 17.9825 93.1123C17.9741 94.9323 17.9783 96.7522 17.9825 98.5723C17.9792 99.8798 17.9747 101.188 17.9698 102.495C17.9592 106.042 17.9596 109.589 17.963 113.136C17.9648 116.097 17.9617 119.059 17.9581 122.021C17.9493 129.406 17.951 136.792 17.9581 144.178C17.964 150.588 17.9567 156.997 17.9425 163.407C17.928 169.995 17.9232 176.582 17.9269 183.17C17.9289 186.866 17.9273 190.562 17.9171 194.258C17.908 197.733 17.9099 201.208 17.921 204.683C17.9232 205.957 17.9213 207.232 17.9152 208.507C17.9073 210.248 17.9144 211.989 17.9249 213.729C17.9192 214.233 17.9132 214.738 17.9073 215.257C17.9493 218.649 18.6621 220.609 20.5919 223.411C21.6919 224.539 21.6918 224.539 22.9318 225.36C23.3799 225.681 23.8284 226.002 24.2902 226.333C25.0076 226.83 25.0085 226.83 25.7403 227.337C26.7631 228.067 27.7852 228.799 28.8068 229.531C29.3198 229.896 29.8329 230.261 30.3614 230.637C32.5471 232.208 34.6824 233.841 36.8136 235.485C37.6421 236.122 38.4703 236.759 39.2989 237.396C39.7223 237.721 40.146 238.046 40.5821 238.382C43.049 240.275 45.5242 242.157 47.9982 244.041C49.0505 244.843 50.103 245.645 51.1554 246.446C53.3217 248.096 55.4887 249.746 57.6554 251.396C60.2605 253.379 62.8646 255.364 65.4679 257.35C66.6349 258.239 67.8034 259.128 68.9718 260.016C74.0675 263.905 79.0372 267.942 83.9962 272.004C83.9958 270.835 82.5942 269.932 81.8292 269.166C81.3696 268.706 80.9102 268.245 80.4366 267.771C79.7056 267.043 79.7049 267.043 78.9591 266.301C78.4901 265.829 78.0214 265.358 77.5382 264.872C77.0723 264.407 76.6061 263.942 76.1261 263.463C75.7041 263.042 75.2825 262.62 74.8478 262.186C73.6736 261.071 72.4874 260.013 71.2599 258.96C65.7538 254.17 60.6393 248.913 55.4523 243.783C53.5299 241.882 51.6021 239.987 49.6622 238.104C47.7739 236.27 45.8995 234.423 44.0333 232.567C43.3235 231.866 42.6089 231.169 41.8898 230.477C36.2918 225.079 36.2912 225.079 35.5636 222.406C35.5495 220.964 35.5494 220.964 35.9982 218.67C36.1058 217.905 36.1061 217.905 36.2159 217.124C36.3649 216.496 36.3648 216.496 36.5167 215.855C37.1674 212.914 37.6145 209.963 38.0353 206.98C38.3686 205.041 38.3689 205.04 38.9405 202.855C39.73 199.796 40.0878 196.689 40.4796 193.559C40.6266 192.393 40.7759 191.228 40.9269 190.063C40.9907 189.554 41.0545 189.044 41.1202 188.519C41.3319 187.263 41.3315 187.262 41.9239 186.077C42.0881 185.111 42.2259 184.139 42.3497 183.167C42.4253 182.58 42.5013 181.993 42.5792 181.389C42.6564 180.773 42.7331 180.156 42.8126 179.521C42.8898 178.921 42.9675 178.321 43.047 177.703C43.1997 176.507 43.3419 175.31 43.4747 174.111C43.7016 172.447 43.7023 172.447 44.0773 171.128C44.4564 169.619 44.5574 168.66 44.2941 167.114C43.4574 165.748 42.5992 164.444 41.6886 163.13C37.9221 157.53 38.3382 152.051 38.5909 145.521C38.6127 144.414 38.6317 143.307 38.6486 142.2C38.6964 139.539 38.7892 136.883 38.9034 134.224C38.9589 132.808 38.9923 131.394 39.0206 129.978C39.1448 125.542 39.2744 122.482 42.3683 119.15C42.9646 118.474 43.5599 117.796 44.1534 117.117C44.4668 116.771 44.7808 116.426 45.1036 116.069C46.8339 114.097 48.3847 111.987 49.9611 109.891C50.6178 109.028 51.2748 108.166 51.9327 107.305C52.247 106.892 52.562 106.48 52.8859 106.056C54.1283 104.429 55.3773 102.808 56.6271 101.187C62.6004 93.4217 68.5475 85.6415 74.337 77.7383C77.7626 73.0727 81.2755 68.475 84.7921 63.8779C86.9837 61.0114 89.1434 58.1225 91.2853 55.2188C93.6075 52.2397 93.6076 52.2396 95.2745 51.9141C95.7385 51.908 96.2027 51.9017 96.6808 51.8955C97.4819 51.879 97.4826 51.8792 98.2999 51.8623C98.8844 51.8594 99.4692 51.8565 100.071 51.8535C100.688 51.8437 101.305 51.8333 101.941 51.8232C103.986 51.7942 106.031 51.7791 108.076 51.7666C109.124 51.758 109.124 51.7588 110.192 51.75C113.89 51.7199 117.588 51.7001 121.286 51.6895C125.104 51.6764 128.92 51.6276 132.736 51.5703C135.673 51.5327 138.61 51.5215 141.547 51.5176C142.954 51.5111 144.361 51.4943 145.768 51.4678C156.778 51.2739 156.779 51.2743 159.945 53.4248C161.172 54.9343 161.987 56.3195 162.807 58.0752C163.395 58.9118 163.998 59.7391 164.622 60.5498C165.203 61.3661 165.783 62.1832 166.362 63.001C170.04 68.1438 173.858 73.1721 177.702 78.1914C179.742 80.8556 181.761 83.5353 183.769 86.2236C186.309 89.6209 188.878 92.9937 191.47 96.3516C193.281 98.698 195.08 101.054 196.879 103.409C198.95 106.121 201.023 108.832 203.109 111.531C203.831 112.469 204.543 113.413 205.256 114.356C206.191 115.555 207.17 116.721 208.187 117.852C210.995 121.111 212.267 123.396 212.39 127.745C212.422 128.642 212.455 129.539 212.487 130.437C212.508 131.144 212.508 131.145 212.529 131.866C212.601 133.881 212.734 135.89 212.862 137.901C212.991 140.024 213.084 142.148 213.173 144.273C213.224 145.356 213.285 146.438 213.357 147.519C213.813 154.549 213.601 159.07 209.006 164.619C206.667 168.442 207.897 172.97 208.624 177.199C208.707 177.7 208.789 178.201 208.874 178.717C209.143 180.344 209.418 181.97 209.693 183.596C209.881 184.728 210.069 185.861 210.256 186.994C211.088 192.021 211.938 197.045 212.799 202.066C213.132 204.008 213.462 205.95 213.792 207.892C214.022 209.231 214.256 210.57 214.491 211.908C216.369 222.748 216.369 222.749 214.302 225.897C213.73 226.489 213.143 227.067 212.545 227.633C212.074 228.11 212.074 228.111 211.594 228.598C210.553 229.647 209.494 230.677 208.435 231.707C207.665 232.473 206.896 233.242 206.129 234.011C204.971 235.171 203.813 236.33 202.649 237.483C200.421 239.694 198.288 241.944 196.264 244.344C195.355 245.386 194.392 246.339 193.398 247.3C191.182 249.476 189.28 251.868 187.336 254.286C185.901 256.023 184.408 257.683 182.88 259.338C180.827 261.573 178.917 263.845 177.084 266.262C175.383 268.449 173.612 270.575 171.844 272.708C169.002 276.142 166.207 279.606 163.467 283.122C161.404 285.765 159.298 288.37 157.178 290.968C151.249 297.858 151.249 297.858 146.064 305.273C145.03 306.375 145.03 306.375 143.396 306.708C142.733 306.724 142.071 306.74 141.389 306.757C140.637 306.78 139.884 306.803 139.109 306.826C138.285 306.838 137.46 306.848 136.635 306.856C136.008 306.866 136.008 306.867 135.368 306.877C133.148 306.913 130.928 306.934 128.707 306.944C126.886 306.955 125.068 306.988 123.248 307.042C105.303 307.567 105.303 307.567 99.1945 302.042C98.5493 301.411 97.9133 300.77 97.2892 300.118C96.1074 298.93 94.7881 298.043 93.3849 297.135C92.7418 296.703 92.7412 296.703 92.0851 296.262C91.4541 295.841 91.4544 295.841 90.8107 295.412C86.8144 292.714 82.92 289.916 79.0792 287.001C75.9565 284.632 72.7836 282.344 69.587 280.076C67.1068 278.316 64.6456 276.529 62.1827 274.745C58.7052 272.228 55.2127 269.733 51.7013 267.264C47.7331 264.473 43.7934 261.644 39.8634 258.8C34.1575 254.67 28.4221 250.582 22.6661 246.522C21.8151 245.921 20.9634 245.32 20.1124 244.719C18.5148 243.59 16.9148 242.466 15.3126 241.344C2.58019 232.397 2.57905 232.398 0.444451 224.597C0.270706 222.64 0.274753 220.691 0.278436 218.728C0.274915 218.139 0.271321 217.55 0.267694 216.943C0.257425 214.973 0.255792 213.003 0.254022 211.032C0.248535 209.619 0.242832 208.205 0.236444 206.791C0.220904 202.951 0.212369 199.111 0.207147 195.271C0.203867 192.871 0.199783 190.471 0.194451 188.071C0.180006 181.419 0.167214 174.767 0.163201 168.114C0.162941 167.689 0.162493 167.263 0.162225 166.825C0.161966 166.399 0.162491 165.972 0.162225 165.533C0.161699 164.669 0.160805 163.805 0.160272 162.941C0.160009 162.513 0.159565 162.084 0.159295 161.643C0.15462 154.704 0.13417 147.765 0.106561 140.826C0.0784081 133.693 0.0639954 126.56 0.0626155 119.427C0.0615317 115.425 0.0539244 111.424 0.032342 107.423C0.012777 103.657 0.0102406 99.8917 0.0206233 96.126C0.0215345 94.7472 0.0167374 93.368 0.00499829 91.9893C-0.0724909 82.3176 0.675292 75.7551 7.63781 68.4678C11.2929 65.2261 15.4235 62.6475 19.5177 60.001C20.4793 59.3707 21.4408 58.7399 22.4015 58.1084C25.1481 56.3071 27.9044 54.5207 30.6652 52.7412C31.0276 52.5074 31.3904 52.2741 31.7638 52.0332C35.2778 49.7682 38.8082 47.5291 42.3468 45.3027C44.4888 43.948 46.6134 42.5668 48.7384 41.1855C58.8365 34.6333 69.0265 28.2277 79.2413 21.8594C81.0125 20.754 82.7828 19.6458 84.5519 18.5371C91.5449 14.1561 98.5563 9.807 105.594 5.49805C106.509 4.93651 106.51 4.93616 107.444 4.36328C108.011 4.01626 108.577 3.66906 109.16 3.31152C110.388 2.54165 111.581 1.74557 112.768 0.914063C114.217 -0.000242952 114.217 2.83147e-09 115.994 0ZM129.083 230.285C128.625 230.29 128.179 230.294 127.734 230.299C113.333 230.379 101.348 232.793 88.7364 240.003C88.7364 241.78 88.7369 241.781 89.3673 243.105C89.6683 243.635 89.9609 244.149 90.253 244.663C90.588 245.261 90.9133 245.841 91.2384 246.421C91.9412 247.674 92.634 248.933 93.3155 250.198C93.6672 250.858 94.0085 251.499 94.3497 252.14C95.0589 253.464 95.7679 254.789 96.4767 256.114C96.8422 256.8 97.1971 257.466 97.5519 258.132C97.911 258.802 98.2599 259.452 98.6085 260.103C98.9272 260.699 99.2367 261.279 99.546 261.858C99.9 262.487 100.244 263.097 100.588 263.707C101.058 265.097 101.545 266.248 102.338 267.486C104.429 269.143 104.429 269.143 112.186 268.967C113.179 268.943 114.173 268.928 115.166 268.921C117.772 268.912 120.377 268.886 122.983 268.838C125.143 268.798 127.303 268.769 129.463 268.753C134.014 268.722 138.564 268.688 143.114 268.613C143.562 268.605 143.996 268.599 144.431 268.591C145.822 268.573 147.195 268.53 148.585 268.448C149.78 267.253 149.781 267.252 157.401 253.187C157.807 252.434 158.215 251.681 158.622 250.929C159.222 249.83 159.821 248.731 160.414 247.63C160.603 247.278 160.788 246.936 160.972 246.594C162.171 244.378 163.038 242.504 163.4 240.003C158.07 236.956 152.852 234.313 146.908 232.646C146.471 232.528 146.047 232.413 145.623 232.299C140.042 230.698 134.845 230.238 129.083 230.285ZM190.633 129.521C187.053 127.625 187.053 127.625 173.854 129.876C172.922 130.035 171.99 130.192 171.058 130.349C169.076 130.679 167.094 131.013 165.113 131.351C162.485 131.8 159.856 132.248 157.226 132.687C155.086 133.043 152.947 133.403 150.809 133.767C149.772 133.944 148.734 134.12 147.697 134.297C142.517 135.162 137.412 136.005 132.393 137.577C129.447 138.574 126.807 139.104 123.698 139.26C121.657 137.219 121.656 137.219 106.521 134.835C105.637 134.696 104.753 134.555 103.869 134.413C102.449 134.183 101.027 133.954 99.6066 133.726C95.8527 133.127 92.1014 132.515 88.3527 131.885C86.6162 131.593 84.8795 131.302 83.1427 131.013C82.0076 130.824 80.8724 130.635 79.7374 130.445C78.1115 130.17 76.4855 129.894 74.8585 129.625C74.343 129.54 73.8423 129.458 73.3419 129.376C66.2834 128.162 62.1329 127.11 58.504 134.197C58.2916 134.625 58.0852 135.042 57.879 135.457C57.4298 136.348 56.9812 137.24 56.5333 138.132C55.8397 139.531 55.1449 140.929 54.4386 142.321C53.9751 143.233 53.5136 144.147 53.0558 145.063C52.7237 145.729 52.724 145.73 52.3986 146.383C50.8779 149.367 49.8556 151.891 49.6271 155.26C49.8284 155.461 50.0244 155.657 50.2198 155.853C53.3163 158.498 56.2534 161.241 59.1105 164.145C60.1383 165.194 61.1689 166.242 62.2013 167.287C64.1455 169.254 66.09 171.22 68.0255 173.195C69.4053 174.605 70.7883 176.011 72.1759 177.413C72.7146 177.957 73.2379 178.485 73.7609 179.013C74.2741 179.54 74.7725 180.053 75.2706 180.565C75.7555 181.053 76.2267 181.525 76.6974 181.998C78.9479 184.287 81.0957 185.352 84.3253 185.599C84.7927 185.584 85.2467 185.57 85.7003 185.557C86.1771 185.546 86.6399 185.535 87.1027 185.524C87.4568 185.51 87.8009 185.496 88.1446 185.482C87.6612 187.31 87.315 189.138 86.9962 191.001C86.805 192.128 86.5933 193.252 86.3663 194.372C85.3951 197.629 84.7745 200.794 84.2921 204.149C83.9075 206.825 83.5012 209.418 82.795 212.031C82.1694 214.089 81.6955 216.121 81.3116 218.235C81.1714 219.052 81.1707 219.053 81.0333 219.854C80.3507 223.172 79.961 225.767 81.2462 228.977C82.4151 231.082 83.366 233.596 85.7179 234.519C87.2424 234.702 87.243 234.702 90.2071 233.004C95.395 229.969 100.63 227.75 106.413 226.127C107.062 225.952 107.063 225.951 107.699 225.779C125.089 221.042 143.84 223.744 159.696 231.891C162.08 233.162 164.237 234.311 166.955 234.669C167.521 233.807 168.085 232.943 168.641 232.074C168.874 231.71 169.1 231.356 169.326 231.002C171.352 227.932 172.019 226.03 171.436 222.362C171.309 221.747 171.187 221.15 171.065 220.553C170.921 219.845 170.781 219.158 170.642 218.471C170.408 217.338 170.174 216.205 169.942 215.072C169.612 213.446 169.283 211.82 168.95 210.194C168.09 205.986 167.248 201.774 166.407 197.562C165.947 195.256 165.487 192.951 165.026 190.646C164.941 190.221 164.858 189.807 164.776 189.395C164.544 188.239 164.544 188.238 164.317 187.104C164.154 186.286 164.153 186.285 163.992 185.482C164.361 185.49 164.719 185.497 165.076 185.504C165.564 185.509 166.037 185.514 166.511 185.52C167.226 185.53 167.227 185.531 167.928 185.541C171.819 185.38 171.819 185.379 180.274 177.017C180.837 176.456 181.385 175.912 181.932 175.367C183.406 173.901 184.881 172.435 186.353 170.967C187.886 169.436 189.421 167.907 190.961 166.384C192.17 165.188 193.377 163.989 194.58 162.788C195.153 162.215 195.728 161.642 196.302 161.07C196.873 160.507 197.427 159.96 197.981 159.413C198.504 158.887 199.014 158.377 199.523 157.866C200.884 156.512 200.884 156.511 201.917 155.26C202.481 153.74 202.602 153.18 202.109 151.629C201.881 151.167 201.659 150.718 201.438 150.27C201.185 149.749 200.94 149.243 200.695 148.737C200.418 148.185 200.149 147.648 199.88 147.112C199.33 145.993 198.779 144.872 198.228 143.753C197.436 142.165 196.646 140.576 195.883 138.974C195.463 138.081 195.041 137.19 194.615 136.3C194.319 135.682 194.319 135.681 194.028 135.075C193.086 133.042 192.084 131.25 190.633 129.521ZM115.587 181.535C116.426 181.533 117.266 181.53 118.105 181.526C119.86 181.522 121.615 181.528 123.37 181.542C125.616 181.559 127.861 181.549 130.107 181.531C131.838 181.521 133.569 181.525 135.301 181.532C136.129 181.534 136.957 181.531 137.784 181.524C138.943 181.517 140.101 181.53 141.26 181.545C142.247 181.548 142.247 181.549 143.254 181.553C145.61 182.052 146.504 183.038 147.993 184.892C148.438 186.928 148.438 186.929 147.993 189.04C146.789 190.496 145.477 191.642 143.845 192.596H142.067C141.774 191.423 141.774 191.421 141.475 190.225H131.401C130.658 191.711 130.715 192.783 130.684 194.445C130.659 195.349 130.659 195.35 130.633 196.272C130.602 197.547 130.575 198.822 130.554 200.097C130.526 201.002 130.527 201.003 130.499 201.927C130.487 202.481 130.475 203.036 130.463 203.606C130.176 205.275 129.776 205.812 128.439 206.818C127.291 207.054 127.29 207.054 126.068 207.04C125.464 207.047 125.463 207.047 124.846 207.054C123.326 206.741 122.871 206.26 121.92 205.04C121.683 203.606 121.682 203.605 121.658 201.927C121.643 201.323 121.628 200.719 121.611 200.097C121.603 199.467 121.595 198.837 121.587 198.188C121.567 196.941 121.542 195.693 121.511 194.445C121.504 193.892 121.496 193.338 121.488 192.768C121.456 191.294 121.456 191.293 120.143 190.225C118.516 190.139 116.952 190.115 115.328 190.151C114.658 190.159 114.658 190.159 113.974 190.167C112.87 190.181 111.765 190.202 110.661 190.225C110.466 191.007 110.271 191.79 110.069 192.596C108.034 192.421 107.092 191.992 105.44 190.743C104.144 189.04 104.144 189.039 103.774 186.966C104.496 182.922 106.969 181.559 110.877 181.545C111.626 181.536 112.376 181.526 113.149 181.517C113.961 181.522 114.774 181.528 115.587 181.535ZM180.584 151.706C177.829 155.014 174.895 158.078 171.844 161.113C171.39 161.57 170.935 162.028 170.467 162.498C170.032 162.932 169.597 163.366 169.15 163.813C168.757 164.205 168.363 164.598 167.958 165.002C165.531 167.243 162.474 166.738 159.337 166.615C155.13 166.305 150.957 165.479 146.808 164.743C147.394 166.503 147.982 168.264 148.586 170.077C145.586 169.303 143.762 167.927 141.549 165.854C138.775 163.334 138.774 163.334 135.216 162.521C133.121 162.849 133.12 162.849 131.401 164.15C130.217 164.076 130.216 164.077 129.031 163.559C127.995 162.337 127.994 162.335 127.253 161.188C125.113 161.395 125.112 161.396 123.564 162.728C122.513 163.558 122.512 163.559 120.604 163.415C119.478 163.229 119.477 163.229 118.328 163.04C115.829 162.736 114.088 162.68 111.867 164.044C110.878 164.992 109.915 165.969 108.982 166.973C107.297 168.715 105.825 169.335 103.551 170.077C104.137 168.317 104.724 166.556 105.328 164.743C104.619 164.871 103.909 165 103.178 165.132C102.204 165.299 101.229 165.466 100.255 165.632C99.5613 165.759 99.5603 165.76 98.8527 165.89C97.2615 166.156 95.673 166.344 94.0695 166.521C93.3765 166.622 92.6829 166.722 91.9689 166.825C88.6538 167.11 85.8857 167.234 83.1388 165.194C81.0949 163.435 79.3079 161.456 77.5148 159.447C76.8723 158.765 76.2278 158.084 75.5812 157.406C70.9609 152.515 70.9601 152.514 70.9601 151.706C81.081 152.098 91.1248 153.499 101.173 154.707C102.796 154.902 104.419 155.094 106.042 155.285C107.555 155.463 109.069 155.645 110.581 155.83C115.538 156.411 120.516 156.905 125.476 156.113C127.253 155.854 127.254 155.855 129.031 156.447C133.733 156.666 138.267 156.013 142.919 155.373C144.565 155.154 146.211 154.937 147.857 154.72C148.269 154.665 148.681 154.611 149.106 154.555C159.593 153.166 170.005 152.032 180.584 151.706Z" fill="#101E2B"/>
</svg>
