<svg width="908" height="675" viewBox="0 0 908 675" fill="none" xmlns="http://www.w3.org/2000/svg">
<path d="M456 0C459.252 1.23517 462.217 2.60516 465.196 4.39844C465.984 4.87152 466.772 5.34461 467.584 5.83203C468.842 6.5958 468.842 6.5958 470.125 7.375C471.007 7.90738 471.889 8.43977 472.797 8.98828C481.147 14.0505 489.405 19.2557 497.641 24.5C501.588 27.0097 505.545 29.5041 509.5 32C514.193 34.9628 518.885 37.9266 523.574 40.8945C532.303 46.4165 541.049 51.9084 549.813 57.375C558.476 62.7798 567.104 68.2361 575.71 73.73C582.449 78.0263 589.219 82.2718 596 86.5C649.481 119.882 649.481 119.882 653.551 135.051C654.19 139.244 654.145 143.378 654.141 147.614C654.144 148.588 654.147 149.562 654.15 150.565C654.158 153.832 654.16 157.098 654.161 160.364C654.166 162.705 654.171 165.046 654.176 167.387C654.19 173.748 654.196 180.11 654.2 186.472C654.203 190.446 654.207 194.421 654.212 198.395C654.224 209.407 654.234 220.418 654.238 231.43C654.238 232.486 654.238 232.486 654.238 233.564C654.239 234.27 654.239 234.976 654.239 235.703C654.24 237.134 654.24 238.564 654.24 239.995C654.241 241.059 654.241 241.059 654.241 242.145C654.245 253.639 654.263 265.133 654.286 276.628C654.31 288.438 654.322 300.248 654.323 312.058C654.324 318.685 654.33 325.312 654.348 331.939C654.364 338.174 654.367 344.409 654.358 350.644C654.357 352.93 654.361 355.216 654.371 357.502C654.384 360.627 654.378 363.752 654.368 366.878C654.38 368.228 654.38 368.228 654.392 369.606C654.299 381.605 649.646 389.587 641.246 397.911C637.78 401.135 634.036 403.878 630.188 406.625C628.504 407.846 626.82 409.068 625.137 410.289C624.284 410.904 623.431 411.519 622.553 412.153C618.515 415.075 614.509 418.039 610.5 421C608.917 422.167 607.334 423.334 605.75 424.5C604.575 425.366 604.575 425.366 603.375 426.25C596.25 431.5 596.25 431.5 593.875 433.25C592.292 434.416 590.71 435.583 589.127 436.75C585.162 439.674 581.193 442.592 577.215 445.5C567.024 452.96 556.996 460.602 547.054 468.391C543.939 470.832 540.817 473.264 537.688 475.688C536.702 476.454 535.715 477.221 534.699 478.012C532.207 479.848 529.684 481.46 527 483C531.296 473.753 538.758 465.669 544.941 457.608C553.801 446.056 562.486 434.377 571.105 422.645C572.202 421.152 573.301 419.661 574.402 418.171C575.477 416.711 576.544 415.246 577.605 413.777C580.164 410.269 582.48 407.216 586.063 404.688C589.97 401.805 593.687 398.778 597.375 395.625C601.53 392.084 605.708 388.578 609.938 385.125C610.823 384.398 611.709 383.671 612.621 382.922C614.031 381.783 615.456 380.661 616.91 379.578C620.762 376.664 622.651 373.568 624 369C624.407 365.867 624.41 362.775 624.388 359.619C624.396 358.232 624.396 358.232 624.404 356.817C624.419 353.729 624.411 350.642 624.404 347.554C624.41 345.337 624.417 343.119 624.425 340.901C624.443 334.884 624.442 328.868 624.436 322.852C624.433 317.829 624.439 312.807 624.445 307.784C624.46 295.26 624.456 282.736 624.444 270.213C624.434 259.34 624.447 248.468 624.471 237.596C624.496 226.424 624.505 215.253 624.499 204.081C624.495 197.812 624.498 191.544 624.515 185.275C624.53 179.382 624.526 173.49 624.508 167.597C624.504 165.434 624.507 163.271 624.517 161.108C624.531 158.156 624.519 155.206 624.501 152.254C624.511 151.397 624.521 150.54 624.531 149.657C624.464 144.299 623.562 141.247 620 137C617.846 135.293 615.81 133.828 613.5 132.375C612.849 131.953 612.198 131.531 611.528 131.097C605.404 127.166 599.146 123.452 592.89 119.737C585.666 115.437 578.57 110.953 571.49 106.421C561.722 100.171 551.886 94.0343 542.046 87.8999C538.991 85.9944 535.939 84.0856 532.887 82.1758C523.335 76.1982 513.775 70.2344 504.188 64.3125C499.161 61.2062 494.138 58.0934 489.137 54.9453C488.346 54.4491 487.556 53.9529 486.741 53.4417C485.172 52.4439 483.613 51.4301 482.064 50.4001C478.005 47.727 474.117 45.5656 469.59 43.7773C459.159 39.2589 459.159 39.2589 456 34C453.644 22.883 454.846 11.2177 456 0Z" fill="#1461DC"/>
<path d="M173.829 585.771C174.708 585.771 175.586 585.771 176.491 585.77C179.386 585.772 182.281 585.787 185.175 585.803C187.186 585.807 189.197 585.809 191.207 585.811C196.493 585.819 201.778 585.839 207.064 585.861C212.46 585.881 217.856 585.891 223.252 585.901C233.834 585.922 244.417 585.956 255 585.998C255 590.061 253.344 591.795 251.062 595.123C249.966 596.736 249.966 596.736 248.847 598.381C247 600.998 247 600.998 246 601.998C243.598 602.091 241.224 602.121 238.821 602.108C237.263 602.109 235.706 602.109 234.148 602.11C233.318 602.109 232.487 602.107 231.632 602.106C227.247 602.102 222.863 602.128 218.478 602.149C212.893 602.173 207.308 602.189 201.723 602.173C197.215 602.162 192.708 602.179 188.2 602.216C186.483 602.224 184.766 602.222 183.049 602.209C180.64 602.192 178.234 602.213 175.825 602.241C175.119 602.227 174.413 602.214 173.685 602.199C169.693 602.291 167.412 603.108 164.559 605.774C162.388 608.243 161.246 609.971 161.223 613.348C161.204 614.149 161.185 614.95 161.166 615.775C161.184 617.046 161.184 617.046 161.203 618.342C161.197 619.229 161.191 620.117 161.185 621.031C161.181 622.9 161.192 624.769 161.217 626.638C161.25 629.491 161.218 632.337 161.179 635.19C161.183 637.011 161.191 638.833 161.203 640.654C161.191 641.502 161.178 642.349 161.166 643.221C161.26 647.209 161.671 650.308 164.137 653.532C169.211 657.84 176.314 656.857 182.593 656.795C184.028 656.799 185.462 656.805 186.896 656.813C189.896 656.821 192.894 656.809 195.894 656.78C199.728 656.746 203.559 656.766 207.393 656.802C210.353 656.824 213.312 656.817 216.272 656.801C217.685 656.797 219.098 656.802 220.511 656.816C229.179 657.137 229.179 657.137 236.849 653.761C240.022 648.832 240.022 648.832 240 636.998C224.49 636.998 208.98 636.998 193 636.998C193 632.048 193 627.098 193 621.998C213.79 621.998 234.58 621.998 256 621.998C256.062 627.34 256.123 632.682 256.187 638.186C256.228 640.702 256.228 640.702 256.27 643.268C256.279 644.609 256.286 645.95 256.293 647.291C256.316 648.322 256.316 648.322 256.339 649.373C256.343 656.285 253.458 659.827 248.75 664.561C248.023 665.305 247.296 666.048 246.547 666.815C241.041 671.535 236.917 673.494 229.647 673.548C228.948 673.558 228.249 673.568 227.53 673.579C225.241 673.606 222.953 673.604 220.664 673.6C219.059 673.608 217.453 673.616 215.848 673.626C212.491 673.641 209.134 673.64 205.777 673.63C201.494 673.618 197.213 673.652 192.93 673.698C189.617 673.728 186.304 673.729 182.99 673.723C181.412 673.724 179.834 673.735 178.257 673.755C169.08 673.858 162.102 673.52 155 666.998C154.155 666.274 153.311 665.549 152.441 664.803C151.511 663.848 151.511 663.848 150.562 662.873C149.924 662.231 149.286 661.589 148.629 660.928C145.622 657.366 144.748 654.54 144.662 649.898C144.639 648.883 144.617 647.868 144.594 646.822C144.576 645.184 144.576 645.184 144.558 643.514C144.544 642.384 144.531 641.255 144.517 640.091C144.493 637.7 144.476 635.31 144.464 632.919C144.437 629.275 144.362 625.634 144.287 621.99C144.27 619.665 144.256 617.339 144.246 615.014C144.216 613.93 144.186 612.847 144.155 611.73C144.188 606.094 144.647 602.728 148.406 598.387C149.578 597.231 150.774 596.097 152 594.998C152.745 594.258 153.49 593.518 154.257 592.756C154.874 592.217 155.49 591.678 156.125 591.123C156.746 590.569 157.367 590.015 158.007 589.444C163.086 585.759 167.79 585.718 173.829 585.771Z" fill="#13202E"/>
<path d="M310.668 585.757C311.837 585.754 311.837 585.754 313.029 585.751C315.605 585.747 318.181 585.758 320.758 585.769C322.544 585.77 324.331 585.771 326.118 585.77C329.863 585.772 333.607 585.78 337.351 585.794C342.161 585.811 346.971 585.814 351.781 585.814C355.47 585.814 359.158 585.819 362.847 585.827C364.621 585.83 366.396 585.832 368.17 585.833C370.643 585.835 373.117 585.843 375.59 585.854C376.33 585.854 377.07 585.853 377.832 585.853C382.885 585.885 382.885 585.885 384 586.999C384.099 589.331 384.129 591.666 384.125 593.999C384.129 595.918 384.129 595.918 384.133 597.874C384 600.999 384 600.999 383 601.999C380.695 602.097 378.387 602.125 376.081 602.125C375.357 602.127 374.633 602.129 373.888 602.131C372.311 602.135 370.734 602.137 369.157 602.138C365.805 602.141 362.454 602.162 359.103 602.183C352.857 602.221 346.611 602.252 340.365 602.25C336.026 602.249 331.688 602.272 327.349 602.312C325.695 602.322 324.041 602.324 322.387 602.316C320.07 602.307 317.754 602.328 315.436 602.356C314.118 602.36 312.8 602.363 311.442 602.367C307.05 603.174 305.6 604.402 303 607.999C302.189 611.332 302.189 611.332 302.187 614.812C302.14 615.973 302.092 617.135 302.043 618.331C302.021 619.652 302.021 619.652 302 620.999C302.95 620.997 303.9 620.995 304.878 620.993C313.811 620.972 322.743 620.957 331.675 620.948C336.268 620.942 340.861 620.935 345.454 620.924C349.882 620.913 354.311 620.907 358.739 620.905C360.432 620.903 362.126 620.899 363.819 620.894C366.183 620.886 368.546 620.885 370.91 620.886C371.617 620.882 372.324 620.879 373.052 620.875C377.886 620.885 377.886 620.885 379 621.999C379 626.949 379 631.899 379 636.999C353.59 636.999 328.18 636.999 302 636.999C301.615 649.854 301.615 649.854 305.589 654.333C309.544 656.265 312.17 656.637 316.566 656.659C317.298 656.669 318.03 656.68 318.785 656.691C321.188 656.719 323.589 656.713 325.992 656.706C327.665 656.72 329.338 656.735 331.011 656.752C335.4 656.792 339.789 656.802 344.179 656.806C348.664 656.816 353.148 656.853 357.633 656.888C366.422 656.953 375.21 656.983 384 656.999C384 662.279 384 667.559 384 672.999C373.611 673.203 363.224 673.368 352.835 673.466C348.009 673.513 343.185 673.576 338.361 673.678C333.699 673.777 329.038 673.83 324.375 673.853C322.603 673.87 320.83 673.902 319.058 673.951C303.457 674.363 303.457 674.363 297.269 668.882C295.825 667.273 294.4 665.647 293 663.999C291.645 662.903 290.289 661.808 288.931 660.716C285.218 656.911 285.143 653.154 285.053 648C285.07 646.855 285.087 645.71 285.105 644.531C285.101 643.336 285.097 642.142 285.092 640.912C285.092 638.393 285.109 635.875 285.142 633.357C285.187 629.511 285.163 625.67 285.131 621.824C285.139 619.372 285.151 616.92 285.168 614.468C285.159 613.323 285.15 612.178 285.14 610.999C285.271 604.641 285.866 600.835 290.499 596.302C290.994 595.872 291.489 595.442 292 594.999C292.736 594.292 293.472 593.584 294.23 592.855C294.876 592.304 295.522 591.754 296.187 591.187C296.841 590.624 297.494 590.06 298.168 589.48C302.442 586.026 305.366 585.716 310.668 585.757Z" fill="#15222F"/>
<path d="M426.06 585.367C433.504 585.653 436.908 588.995 442 594.001C443.622 595.42 445.267 596.808 446.916 598.195C453.136 603.437 459.247 608.811 465.391 614.142C470.749 618.79 476.129 623.41 481.519 628.021C483.897 630.054 486.268 632.094 488.637 634.138C489.242 634.659 489.847 635.18 490.47 635.718C491.6 636.691 492.728 637.666 493.856 638.642C498.806 642.903 503.887 646.911 509 651.001C509 629.881 509 608.761 509 587.001C514.28 587.001 519.56 587.001 525 587.001C525.022 597.936 525.041 608.871 525.052 619.806C525.057 624.883 525.064 629.96 525.075 635.037C525.086 639.932 525.092 644.827 525.095 649.723C525.097 651.595 525.1 653.467 525.106 655.339C525.113 657.951 525.114 660.564 525.113 663.177C525.117 663.958 525.121 664.74 525.124 665.546C525.114 670.887 525.114 670.887 524 672.001C509.944 673.681 509.944 673.681 504.035 670.31C501.541 667.985 499.283 665.532 497 663.001C495.277 661.531 493.526 660.094 491.75 658.688C486.87 654.736 482.092 650.68 477.333 646.584C473.405 643.203 469.461 639.843 465.5 636.501C460.96 632.669 456.443 628.811 451.937 624.938C447.395 621.039 442.839 617.157 438.25 613.313C437.286 612.505 436.321 611.697 435.328 610.864C433.153 608.99 433.153 608.99 431 608.001C431 629.121 431 650.241 431 672.001C425.72 672.001 420.44 672.001 415 672.001C414.955 661.083 414.918 650.166 414.896 639.248C414.886 634.179 414.872 629.11 414.849 624.041C414.827 619.152 414.815 614.263 414.81 609.374C414.806 607.506 414.799 605.637 414.788 603.769C414.774 601.159 414.772 598.549 414.773 595.939C414.766 595.161 414.758 594.382 414.751 593.581C414.783 585.194 418.474 585.4 426.06 585.367Z" fill="#121F2D"/>
<path fill-rule="evenodd" clip-rule="evenodd" d="M753.872 585.412C764.335 585.269 771.575 586.709 779.84 593.247L781.938 595.438L784.09 597.622C789.034 603.779 789.5 609.073 789.574 616.7C789.589 617.73 789.603 618.762 789.618 619.824C789.642 622.001 789.657 624.179 789.665 626.357C789.687 629.661 789.768 632.961 789.85 636.264C790.083 653.953 790.083 653.954 785.645 660.52C784.127 662.045 782.575 663.536 781 665.001C780.242 665.711 779.484 666.422 778.703 667.154C770.835 673.674 763.757 674.157 753.965 673.993C752.435 673.993 750.905 673.996 749.375 674.001C746.187 674.004 743 673.98 739.812 673.934C735.751 673.877 731.693 673.883 727.632 673.909C724.479 673.923 721.326 673.906 718.173 673.881C716.677 673.872 715.181 673.872 713.685 673.879C702.771 673.91 695.532 672.028 687.344 664.586L685.5 662.376L683.594 660.149C680.853 656.455 679.751 653.768 679.709 649.144C679.696 648.183 679.684 647.221 679.671 646.231C679.669 645.199 679.666 644.166 679.664 643.102C679.657 642.034 679.65 640.967 679.644 639.867C679.633 637.609 679.629 635.351 679.629 633.093C679.625 629.645 679.589 626.198 679.551 622.75C679.545 620.555 679.541 618.36 679.539 616.165C679.525 615.137 679.51 614.109 679.495 613.049C679.534 606.999 680.061 603.654 684 599.001L685.75 596.501C691.84 589.734 698.252 585.782 707.467 585.695C708.755 585.679 710.044 585.662 711.372 585.646C712.773 585.64 714.174 585.634 715.574 585.629C717.023 585.62 718.471 585.611 719.92 585.602C722.955 585.586 725.99 585.579 729.025 585.576C732.891 585.57 736.756 585.533 740.621 585.487C743.615 585.457 746.608 585.45 749.602 585.449C751.025 585.445 752.449 585.433 753.872 585.412ZM717.879 601.106C710.984 601.012 704.886 600.626 699.199 604.968C695.94 608.386 695.036 611.199 694.889 615.865C694.905 616.729 694.921 617.568 694.938 618.407C694.922 620.22 694.912 622.034 694.906 623.848C694.957 626.682 695 629.505 694.957 632.339C694.923 634.198 694.91 636.057 694.915 637.917C694.923 638.827 694.93 639.711 694.938 640.594C694.83 646.162 695.245 649.887 699.204 654.041C703.89 657.619 708.213 657.816 713.978 657.844C715.908 657.799 715.908 657.799 717.801 657.754C721.191 657.741 724.581 657.734 727.971 657.678C731.507 657.61 735.042 657.552 738.579 657.536C741.352 657.525 744.125 657.508 746.898 657.483C748.246 657.469 749.555 657.456 750.863 657.442C752.174 657.43 753.446 657.417 754.718 657.406C755.929 657.383 757.104 657.361 758.279 657.338C763.457 657.255 765.516 656.142 769.642 652.966C772.451 649.432 772.627 647.57 772.746 643.184C772.742 642.284 772.738 641.41 772.734 640.536C772.754 638.665 772.769 636.795 772.781 634.924C772.762 631.989 772.75 629.058 772.803 626.123C772.84 624.202 772.861 622.281 772.865 620.361C772.863 619.422 772.861 618.51 772.859 617.598C772.981 612.428 773.013 608.366 769.306 604.453C764.989 601.324 764.989 601.324 755.112 601.141C753.163 601.155 751.214 601.168 749.265 601.159C746.503 601.139 743.741 601.127 740.979 601.145C737.412 601.176 733.848 601.188 730.281 601.142C727.486 601.105 724.693 601.087 721.897 601.092C720.558 601.099 719.218 601.104 717.879 601.106Z" fill="#1765DE"/>
<path d="M58 585.442C59.9849 585.382 59.9849 585.382 62 585.563C63.0574 585.626 63.0574 585.626 64.1362 585.69C67.3884 586.067 69.6882 586.769 72.3203 588.723C74.0728 591.056 75.5185 593.442 76.8975 596.011C78.6299 599.137 80.5867 602.114 82.5193 605.12C84.3241 607.929 86.1049 610.752 87.8867 613.575C92.5015 620.833 97.2784 627.979 102.062 635.126C103.767 637.675 105.472 640.224 107.176 642.774C107.793 643.698 107.793 643.698 108.423 644.64C112.222 650.328 116.002 656.029 119.75 661.751C120.293 662.572 120.836 663.393 121.395 664.239C121.878 664.981 122.361 665.722 122.859 666.485C123.277 667.122 123.694 667.758 124.124 668.414C125 670.001 125 670.001 125 672.001C96.95 672.001 68.9 672.001 40 672.001C40.66 670.351 41.32 668.701 42 667.001C42.2921 666.125 42.5841 665.249 42.885 664.347C44.5341 660.874 45.8207 659.23 49 657.001C56.7614 655.236 65.0497 656.069 72.9375 656.376C75.1698 656.426 77.4023 656.472 79.6348 656.512C85.0922 656.622 90.5456 656.789 96 657.001C95.6836 656.527 95.3672 656.054 95.0413 655.567C88.3101 645.494 81.6146 635.4 75 625.251C73.5629 623.047 72.1253 620.844 70.6875 618.641C70.0726 617.698 69.4577 616.755 68.8242 615.783C68.2222 614.865 67.6202 613.947 67 613.001C66.3052 611.915 65.6104 610.829 64.8945 609.711C63.2794 606.942 63.2794 606.942 61 606.001C60.7669 606.674 60.5338 607.348 60.2937 608.042C58.6674 611.761 56.5499 614.968 54.3008 618.337C53.8332 619.045 53.3655 619.753 52.8838 620.483C51.3641 622.783 49.8383 625.08 48.3125 627.376C47.2675 628.955 46.223 630.536 45.179 632.116C43.61 634.491 42.0406 636.866 40.4696 639.239C36.0122 645.974 31.5916 652.731 27.1875 659.501C26.0144 661.303 24.8412 663.105 23.668 664.907C23.1964 665.632 22.7249 666.357 22.239 667.104C21.1687 668.743 20.0855 670.372 19 672.001C17.0288 672.341 17.0288 672.341 14.6484 672.294C13.7977 672.284 12.9469 672.274 12.0703 672.264C11.1809 672.239 10.2914 672.214 9.375 672.188C8.47781 672.175 7.58063 672.161 6.65625 672.147C4.4369 672.112 2.21875 672.062 0 672.001C0.621779 668.879 1.6616 666.691 3.41406 664.044C3.9197 663.273 4.42533 662.503 4.94629 661.709C5.50026 660.877 6.05424 660.045 6.625 659.188C7.8204 657.372 9.01571 655.555 10.2109 653.739C10.8358 652.794 11.4607 651.848 12.1045 650.874C14.5563 647.157 16.9863 643.426 19.4153 639.695C22.6053 634.793 25.8033 629.898 29 625.001C29.731 623.881 30.4619 622.761 31.1929 621.641C33.0741 618.759 34.9561 615.877 36.8385 612.996C37.8976 611.374 38.9561 609.753 40.0146 608.131C41.3421 606.1 42.6768 604.074 44.019 602.052C45.3928 599.936 46.717 597.787 48.0005 595.615C53.5998 586.408 53.5998 586.408 58 585.442Z" fill="#111F2D"/>
<path d="M544 585.999C546.713 585.781 549.408 585.624 552.125 585.499C552.886 585.431 553.646 585.364 554.43 585.295C557.774 585.18 560.059 585.185 562.658 587.433C564.285 589.542 565.646 591.705 567 593.999C567.527 594.832 568.053 595.665 568.596 596.523C570.329 599.286 572.012 602.075 573.688 604.874C574.926 606.924 576.164 608.975 577.402 611.026C578.315 612.542 578.315 612.542 579.246 614.088C581.732 618.213 584.238 622.326 586.75 626.436C587.405 627.51 587.405 627.51 588.072 628.605C590.321 632.287 592.594 635.951 594.902 639.596C595.37 640.336 595.838 641.076 596.319 641.839C597.21 643.245 598.105 644.65 599.005 646.051C602 650.778 602 650.778 602 652.999C602.66 652.999 603.32 652.999 604 652.999C604.276 652.265 604.552 651.531 604.836 650.774C605.921 648.188 607.134 645.959 608.617 643.584C609.135 642.751 609.653 641.918 610.187 641.059C610.744 640.173 611.301 639.287 611.875 638.374C612.456 637.443 613.037 636.512 613.635 635.553C615.419 632.698 617.208 629.848 619 626.999C619.772 625.769 619.772 625.769 620.559 624.516C621.046 623.74 621.533 622.965 622.035 622.166C622.515 621.402 622.995 620.637 623.489 619.85C624.457 618.32 625.435 616.796 626.421 615.278C629.241 610.918 631.814 606.518 634.23 601.92C642.317 587.081 642.317 587.081 647.377 585.04C652.756 584.124 657.718 584.813 663 585.999C662.463 590.724 660.295 594.105 657.75 597.999C656.831 599.436 655.913 600.873 654.996 602.311C654.507 603.073 654.019 603.835 653.515 604.62C650.904 608.719 648.363 612.861 645.812 616.999C639.186 627.717 632.515 638.408 625.822 649.086C624.027 651.956 622.239 654.83 620.453 657.706C619.365 659.449 618.276 661.193 617.188 662.936C616.69 663.741 616.192 664.546 615.679 665.376C615.222 666.106 614.764 666.836 614.293 667.588C613.896 668.226 613.499 668.864 613.091 669.522C611.333 671.901 609.774 672.046 606.875 672.659C602.687 673.094 599.007 673.448 595 671.999C591.106 668.053 588.887 663.515 586.389 658.604C583.784 653.716 580.725 649.104 577.75 644.436C572.115 635.452 566.574 626.413 561.09 617.335C558.269 612.677 555.411 608.051 552.457 603.475C551.896 602.603 551.335 601.732 550.757 600.834C549.697 599.196 548.63 597.562 547.554 595.935C547.085 595.209 546.616 594.484 546.133 593.737C545.719 593.108 545.306 592.479 544.879 591.832C544 589.999 544 589.999 544 585.999Z" fill="#1664DD"/>
<path d="M798 586C814.349 583.779 814.349 583.779 820.208 587.343C824.248 590.824 827.503 594.933 830.669 599.206C832.212 601.285 833.886 603.207 835.625 605.125C836.129 605.705 836.633 606.285 837.152 606.882C837.762 607.581 838.372 608.28 839 609C839.685 609.786 839.685 609.786 840.383 610.588C841.973 612.403 843.579 614.202 845.188 616C845.699 616.589 846.211 617.178 846.739 617.785C848.38 619.652 848.38 619.652 851 622C855.069 622.45 855.069 622.45 857.48 619.726C858.394 618.702 859.296 617.668 860.188 616.625C860.669 616.08 861.151 615.534 861.648 614.973C862.636 613.855 863.619 612.733 864.598 611.607C866.578 609.337 868.602 607.107 870.625 604.875C871.342 604.075 872.058 603.276 872.797 602.453C874.344 600.73 875.897 599.011 877.453 597.296C878.252 596.415 879.052 595.533 879.875 594.625C880.954 593.437 880.954 593.437 882.055 592.226C884.013 590.105 884.013 590.105 885.316 587.885C887 586 887 586 889.268 585.546C890.564 585.577 890.564 585.577 891.887 585.609C892.825 585.622 893.762 585.635 894.729 585.648C895.705 585.682 896.681 585.715 897.688 585.75C898.676 585.768 899.664 585.786 900.682 585.804C903.122 585.851 905.561 585.917 908 586C906.115 590.078 903.382 593.022 900.312 596.25C899.215 597.419 898.119 598.59 897.023 599.761C896.497 600.323 895.971 600.884 895.429 601.462C893.725 603.295 892.073 605.168 890.438 607.062C887.597 610.343 884.685 613.554 881.75 616.75C881.286 617.254 880.823 617.759 880.345 618.279C877.885 620.955 875.42 623.627 872.953 626.296C872.458 626.833 871.964 627.37 871.454 627.922C870.075 629.418 868.694 630.912 867.312 632.406C866.549 633.262 865.786 634.118 865 635C864.467 635.561 863.934 636.123 863.385 636.702C861.425 639.954 861.58 642.577 861.523 646.355C861.5 647.408 861.5 647.408 861.476 648.483C861.429 650.718 861.401 652.952 861.375 655.187C861.339 657.433 861.298 659.678 861.252 661.923C861.213 663.953 861.185 665.982 861.158 668.012C861 671 861 671 860 672C855.05 672 850.1 672 845 672C845 661.11 845 650.22 845 639C844.01 638.67 843.02 638.34 842 638C840.492 636.504 840.492 636.504 838.875 634.562C836.132 631.327 833.348 628.144 830.5 625C827.83 622.041 825.177 619.07 822.562 616.062C819.752 612.834 816.884 609.662 814 606.5C798 588.943 798 588.943 798 586Z" fill="#1564DE"/>
<path fill-rule="evenodd" clip-rule="evenodd" d="M425.999 0C426.69 8.60298 427.122 17.1919 426.902 25.8242C426.905 26.9103 426.904 26.9106 426.907 28.0186C426.742 32.1125 425.932 34.5426 423.203 37.4893C420.894 39.5894 418.829 41.0519 415.835 42.0352C409.935 44.2849 404.907 47.7082 399.624 51.125C397.548 52.4215 395.47 53.7144 393.39 55.0039C383.869 60.9403 374.44 67.0197 364.998 73.0791C359.442 76.6385 353.872 80.175 348.303 83.7139C343.5 86.7674 338.703 89.8287 333.913 92.9023C323.581 99.5329 313.231 106.131 302.812 112.625C294.797 117.622 286.791 122.634 278.812 127.688C277.897 128.264 276.982 128.841 276.039 129.435C266.328 135.311 266.328 135.311 260.999 145C260.591 148.118 260.589 151.195 260.611 154.337C260.606 155.257 260.6 156.176 260.595 157.124C260.581 160.195 260.588 163.266 260.595 166.338C260.589 168.544 260.582 170.751 260.574 172.957C260.556 178.942 260.557 184.928 260.563 190.913C260.566 195.911 260.56 200.909 260.554 205.906C260.539 218.369 260.543 230.833 260.555 243.296C260.565 254.112 260.552 264.929 260.528 275.745C260.504 286.861 260.495 297.978 260.501 309.094C260.504 315.331 260.502 321.568 260.485 327.805C260.469 333.668 260.473 339.532 260.491 345.396C260.495 347.547 260.492 349.699 260.482 351.851C260.468 354.788 260.481 357.725 260.498 360.663C260.489 361.513 260.479 362.364 260.469 363.24C260.54 368.964 261.742 372.271 264.999 377C266.855 378.903 266.856 378.903 268.948 380.289C269.705 380.831 270.461 381.373 271.24 381.932C272.451 382.77 272.452 382.77 273.687 383.625C275.413 384.858 277.138 386.092 278.862 387.328C279.728 387.944 280.594 388.559 281.485 389.193C285.174 391.845 288.778 394.601 292.374 397.375C293.772 398.449 295.171 399.524 296.569 400.598C297.284 401.147 297.998 401.697 298.735 402.263C302.897 405.457 307.074 408.634 311.249 411.812L316.577 415.871C320.233 418.655 323.89 421.439 327.546 424.223C331.943 427.57 336.337 430.92 340.731 434.271C342.7 435.773 344.672 437.271 346.644 438.77C355.243 445.333 363.63 452.146 371.999 459C371.999 457.026 369.634 455.504 368.343 454.211L365.991 451.855L363.499 449.375L361.101 446.965L358.718 444.586C358.006 443.875 357.293 443.164 356.56 442.432C354.578 440.55 352.577 438.766 350.505 436.988C341.213 428.905 332.582 420.035 323.828 411.378C320.584 408.17 317.331 404.971 314.058 401.793C310.871 398.699 307.707 395.583 304.558 392.451C303.36 391.267 302.154 390.092 300.941 388.924C291.494 379.816 291.493 379.815 290.266 375.306C290.242 372.872 290.242 372.872 290.999 369L291.366 366.391L291.874 364.25C292.972 359.285 293.727 354.307 294.437 349.273C294.999 346 294.999 346 295.964 342.312C297.296 337.15 297.9 331.908 298.562 326.625C298.81 324.658 299.061 322.692 299.316 320.727C299.423 319.866 299.531 319.006 299.642 318.12C299.999 316 299.999 316 300.999 314C301.276 312.369 301.509 310.731 301.718 309.09L302.105 306.088L302.499 302.938L302.894 299.869C303.151 297.851 303.392 295.831 303.616 293.809C303.999 291.001 303.999 291 304.632 288.774C305.272 286.229 305.444 284.609 304.999 282C303.587 279.694 302.137 277.495 300.601 275.277C294.244 265.828 294.948 256.583 295.374 245.562C295.411 243.695 295.443 241.827 295.472 239.959C295.553 235.468 295.709 230.985 295.902 226.498C295.995 224.11 296.051 221.723 296.099 219.333C296.308 211.848 296.527 206.684 301.749 201.062C302.755 199.921 303.759 198.778 304.761 197.633C305.29 197.049 305.818 196.465 306.363 195.864C309.284 192.535 311.901 188.975 314.562 185.438C315.67 183.982 316.779 182.528 317.89 181.074C318.42 180.379 318.951 179.683 319.497 178.967C321.594 176.222 323.703 173.486 325.812 170.75C335.892 157.647 345.928 144.517 355.698 131.181C361.479 123.308 367.408 115.55 373.343 107.793C377.041 102.956 380.685 98.0798 384.3 93.1797C388.219 88.1524 388.219 88.1519 391.032 87.6025C391.816 87.5923 392.599 87.5828 393.406 87.5723C394.758 87.5444 394.758 87.544 396.137 87.5156C397.123 87.5107 398.111 87.5061 399.127 87.501C400.168 87.4845 401.209 87.4682 402.281 87.4512C405.733 87.4022 409.184 87.3765 412.636 87.3555C414.404 87.3409 414.404 87.3411 416.208 87.3262C422.448 87.2753 428.689 87.2426 434.929 87.2246C441.371 87.2026 447.811 87.1201 454.253 87.0234C459.209 86.96 464.165 86.9412 469.121 86.9346C471.495 86.9237 473.87 86.8954 476.243 86.8506C494.825 86.5234 494.825 86.5236 500.169 90.1523C502.24 92.6998 503.615 95.037 504.999 98C505.992 99.4118 507.009 100.808 508.062 102.176C509.043 103.553 510.022 104.932 510.999 106.312C517.206 114.991 523.649 123.475 530.136 131.945C533.579 136.441 536.985 140.963 540.374 145.5C544.661 151.233 548.996 156.924 553.37 162.59C556.427 166.55 559.463 170.525 562.499 174.5C565.995 179.076 569.491 183.65 573.013 188.206C574.23 189.788 575.433 191.38 576.636 192.973C578.215 194.995 579.866 196.963 581.581 198.871C586.32 204.371 588.468 208.227 588.675 215.566C588.729 217.081 588.784 218.595 588.84 220.109C588.875 221.302 588.874 221.303 588.91 222.521C589.032 225.92 589.255 229.31 589.472 232.704C589.688 236.287 589.845 239.872 589.996 243.458C590.082 245.284 590.185 247.11 590.306 248.934C591.076 260.797 590.718 268.427 582.963 277.79C579.015 284.241 581.092 291.883 582.319 299.02C582.459 299.864 582.598 300.709 582.741 301.579C583.196 304.325 583.66 307.069 584.124 309.812C584.441 311.724 584.758 313.637 585.073 315.549C586.478 324.031 587.911 332.508 589.364 340.981C589.926 344.258 590.483 347.535 591.04 350.812C591.427 353.072 591.823 355.33 592.22 357.589C595.389 375.882 595.39 375.882 591.901 381.195C590.936 382.194 589.946 383.17 588.937 384.125C588.142 384.931 588.141 384.931 587.33 385.753C585.574 387.524 583.787 389.261 581.999 391C580.7 392.293 579.403 393.589 578.109 394.887C576.155 396.844 574.2 398.8 572.235 400.747C568.477 404.478 564.877 408.274 561.46 412.324C559.926 414.083 558.302 415.691 556.624 417.312C552.885 420.985 549.674 425.021 546.394 429.102C543.973 432.032 541.452 434.832 538.874 437.625C535.41 441.397 532.186 445.231 529.093 449.309C526.222 452.999 523.232 456.588 520.249 460.188C515.454 465.983 510.737 471.828 506.113 477.761C502.631 482.22 499.077 486.617 495.499 491C485.494 502.627 485.494 502.628 476.743 515.141C474.999 517 474.999 517 472.24 517.562C471.123 517.589 470.005 517.616 468.854 517.645C467.584 517.683 466.315 517.721 465.007 517.761C463.615 517.78 462.223 517.797 460.831 517.812C459.773 517.829 459.773 517.829 458.693 517.847C454.947 517.907 451.2 517.944 447.453 517.961C444.38 517.978 441.311 518.034 438.239 518.125C407.956 519.01 407.956 519.01 397.648 509.688C396.559 508.623 395.486 507.541 394.433 506.441C392.438 504.437 390.211 502.939 387.843 501.406C386.758 500.677 386.758 500.677 385.651 499.933C384.586 499.223 384.585 499.224 383.499 498.5C376.755 493.947 370.183 489.225 363.701 484.307C358.431 480.309 353.077 476.448 347.683 472.621C343.497 469.651 339.343 466.636 335.187 463.625C329.318 459.377 323.425 455.167 317.499 451C310.802 446.29 304.153 441.517 297.521 436.717C287.891 429.748 278.213 422.851 268.499 416C267.063 414.986 265.627 413.971 264.191 412.957C261.494 411.053 258.793 409.155 256.089 407.262C234.602 392.165 234.602 392.165 230.999 379C230.706 375.698 230.712 372.409 230.718 369.096C230.712 368.103 230.706 367.11 230.7 366.087C230.683 362.762 230.68 359.437 230.677 356.111C230.668 353.726 230.657 351.34 230.647 348.955C230.62 342.476 230.608 335.996 230.599 329.517C230.593 325.466 230.584 321.415 230.575 317.365C230.551 306.14 230.53 294.914 230.524 283.688C230.523 282.971 230.523 282.252 230.523 281.513C230.522 280.793 230.522 280.073 230.522 279.332C230.521 277.874 230.52 276.417 230.519 274.959C230.518 274.236 230.517 273.512 230.517 272.767C230.509 261.058 230.474 249.349 230.428 237.641C230.38 225.604 230.355 213.566 230.353 201.529C230.351 194.777 230.34 188.025 230.304 181.273C230.271 174.919 230.266 168.565 230.283 162.21C230.285 159.883 230.277 157.556 230.257 155.229C230.126 138.909 231.388 127.834 243.138 115.537C249.306 110.067 256.277 105.716 263.187 101.25C264.809 100.186 266.431 99.1214 268.053 98.0557C272.688 95.016 277.34 92.0029 281.999 89C282.611 88.6055 283.223 88.2112 283.853 87.8047C289.783 83.9826 295.739 80.2041 301.711 76.4473C305.326 74.161 308.913 71.8309 312.499 69.5C329.541 58.443 346.737 47.6332 363.976 36.8867C366.965 35.0215 369.951 33.1521 372.937 31.2812C384.738 23.8883 396.571 16.5488 408.447 9.27734C409.993 8.32976 409.993 8.33001 411.569 7.36328C412.525 6.77761 413.481 6.19229 414.465 5.58887C416.538 4.28959 418.551 2.94626 420.554 1.54297C422.999 6.42674e-05 422.999 0 425.999 0ZM448.088 388.6C447.314 388.608 446.563 388.615 445.812 388.623C421.507 388.759 401.283 392.832 379.999 404.998C379.999 407.998 380 407.999 381.064 410.234C381.572 411.127 382.065 411.995 382.558 412.861C383.123 413.87 383.673 414.85 384.222 415.829C385.408 417.944 386.577 420.069 387.727 422.203C388.32 423.317 388.896 424.398 389.472 425.479C390.669 427.714 391.865 429.95 393.062 432.186L394.876 435.59L396.659 438.916C397.197 439.923 397.719 440.901 398.241 441.878C398.839 442.939 399.419 443.969 399.999 444.998C400.793 447.344 401.614 449.286 402.952 451.376C406.481 454.173 406.482 454.173 419.572 453.875C421.248 453.835 422.925 453.808 424.601 453.796C428.999 453.781 433.395 453.739 437.792 453.657C441.437 453.589 445.082 453.54 448.728 453.514C456.407 453.462 464.087 453.405 471.766 453.278C472.521 453.265 473.255 453.252 473.988 453.239C476.336 453.209 478.654 453.135 480.999 452.998C483.016 450.982 483.017 450.981 495.876 427.246C496.563 425.976 497.249 424.705 497.937 423.436C498.948 421.582 499.96 419.728 500.961 417.869C501.281 417.274 501.591 416.696 501.901 416.119C503.925 412.379 505.388 409.219 505.999 404.998C497.005 399.857 488.199 395.396 478.169 392.584C477.431 392.385 476.715 392.191 475.999 391.998C466.581 389.296 457.811 388.521 448.088 388.6ZM551.956 218.564C545.915 215.365 545.914 215.364 523.64 219.162C522.068 219.431 520.496 219.697 518.923 219.961C515.578 220.519 512.233 221.08 508.89 221.65C504.454 222.409 500.018 223.165 495.579 223.905C491.969 224.508 488.359 225.115 484.75 225.729C483 226.027 481.249 226.325 479.499 226.623C470.757 228.083 462.142 229.505 453.671 232.158C448.7 233.841 444.246 234.736 438.999 234.998C435.555 231.554 435.553 231.553 410.011 227.531C408.519 227.297 407.027 227.06 405.535 226.82C403.138 226.433 400.74 226.044 398.343 225.658C392.008 224.647 385.677 223.615 379.351 222.552C376.421 222.059 373.49 221.57 370.559 221.082C368.643 220.763 366.727 220.443 364.812 220.123C362.068 219.658 359.324 219.194 356.578 218.74C355.708 218.597 354.863 218.457 354.019 218.318C342.107 216.271 335.104 214.496 328.98 226.456C328.621 227.178 328.273 227.879 327.925 228.58C327.167 230.084 326.409 231.589 325.653 233.094C324.483 235.454 323.31 237.814 322.118 240.164C321.336 241.704 320.558 243.246 319.785 244.79C319.225 245.915 319.224 245.915 318.675 247.018C316.109 252.054 314.385 256.313 313.999 261.998L314.999 262.998C320.225 267.463 325.181 272.091 330.003 276.991C331.738 278.762 333.477 280.53 335.219 282.294C338.5 285.612 341.781 288.93 345.047 292.263C347.376 294.641 349.709 297.016 352.051 299.382C352.96 300.299 353.843 301.19 354.726 302.08C355.592 302.971 356.433 303.836 357.274 304.7C358.092 305.522 358.887 306.321 359.682 307.119C363.479 310.982 367.104 312.777 372.554 313.193L374.874 313.123L377.241 313.068L378.999 312.998C378.183 316.082 377.6 319.167 377.062 322.311C376.739 324.212 376.382 326.108 375.999 327.998C374.36 333.495 373.313 338.835 372.499 344.498C371.85 349.013 371.164 353.389 369.972 357.799C368.916 361.272 368.116 364.699 367.468 368.268L366.999 370.998C365.847 376.599 365.19 380.976 367.359 386.393C369.331 389.946 370.935 394.188 374.904 395.746C377.477 396.056 377.478 396.056 382.48 393.19C391.235 388.069 400.069 384.322 409.829 381.584C410.925 381.288 410.925 381.288 411.999 380.998C441.345 373.004 472.99 377.563 499.749 391.311C503.772 393.456 507.412 395.394 511.999 395.998C512.953 394.543 513.905 393.086 514.843 391.621L515.999 389.811C519.418 384.631 520.544 381.422 519.56 375.232C519.347 374.194 519.14 373.185 518.933 372.178C518.691 370.984 518.456 369.824 518.221 368.665C517.826 366.754 517.43 364.842 517.04 362.93C516.483 360.186 515.926 357.441 515.365 354.698C513.914 347.597 512.492 340.49 511.073 333.382C510.297 329.491 509.52 325.6 508.741 321.71C508.598 320.993 508.459 320.296 508.319 319.6C507.929 317.649 507.93 317.648 507.547 315.735C507.271 314.354 507.27 314.353 506.999 312.998L508.827 313.033L511.249 313.061L513.64 313.096C520.207 312.824 520.207 312.824 534.475 298.713C535.426 297.766 536.349 296.847 537.273 295.928C539.761 293.454 542.249 290.98 544.733 288.502C547.32 285.919 549.911 283.34 552.51 280.77C554.55 278.752 556.586 276.729 558.617 274.702C559.585 273.735 560.554 272.768 561.523 271.803C562.486 270.852 563.421 269.929 564.357 269.006C565.241 268.119 566.1 267.258 566.958 266.396C569.256 264.11 569.256 264.109 570.999 261.998C571.951 259.433 572.155 258.488 571.321 255.87C570.937 255.09 570.564 254.333 570.191 253.576C569.765 252.697 569.351 251.843 568.938 250.99C568.47 250.058 568.016 249.153 567.562 248.248C566.633 246.359 565.703 244.469 564.773 242.58C563.436 239.9 562.104 237.22 560.817 234.516C560.108 233.01 559.395 231.505 558.677 230.003C558.177 228.959 558.177 228.959 557.687 227.936C556.095 224.505 554.405 221.481 551.956 218.564ZM425.312 306.335C426.727 306.332 428.143 306.328 429.559 306.321C432.521 306.314 435.483 306.324 438.445 306.348C442.235 306.376 446.024 306.36 449.814 306.33C452.736 306.312 455.658 306.317 458.58 306.33C459.977 306.333 461.374 306.33 462.771 306.318C464.726 306.306 466.681 306.328 468.636 306.353C470.302 306.359 470.303 306.358 472.002 306.364C475.978 307.207 477.486 308.871 479.999 311.999C480.749 315.436 480.749 315.437 479.999 318.999C477.967 321.457 475.754 323.389 472.999 324.999H469.999L468.999 320.999H451.999C450.745 323.508 450.841 325.314 450.788 328.12L450.702 331.204C450.65 333.355 450.606 335.506 450.569 337.657L450.476 340.745C450.456 341.68 450.437 342.616 450.416 343.579C449.931 346.396 449.257 347.301 446.999 348.999C445.062 349.397 445.062 349.397 442.999 349.374L440.937 349.397C438.372 348.87 437.604 348.057 435.999 345.999C435.599 343.579 435.599 343.579 435.558 340.745L435.478 337.657L435.437 334.437C435.402 332.331 435.36 330.225 435.308 328.12C435.295 327.186 435.283 326.252 435.271 325.29C435.216 322.803 435.215 322.803 432.999 320.999C430.254 320.854 427.614 320.812 424.874 320.874L422.589 320.901C420.726 320.925 418.862 320.961 416.999 320.999L415.999 324.999C412.564 324.705 410.976 323.982 408.187 321.874C406 319 405.999 318.999 405.374 315.499C406.593 308.676 410.768 306.376 417.362 306.353C418.627 306.337 419.892 306.321 421.195 306.305C422.567 306.314 423.94 306.323 425.312 306.335ZM534.999 256C530.35 261.582 525.398 266.753 520.249 271.875L517.925 274.211L515.702 276.43C515.039 277.092 514.375 277.755 513.692 278.438C509.596 282.22 504.436 281.366 499.143 281.158C492.044 280.634 485.001 279.242 477.999 278L480.999 287C475.937 285.693 472.86 283.373 469.124 279.875C464.442 275.621 464.442 275.621 458.437 274.25C454.9 274.803 454.9 274.803 451.999 277C449.999 276.875 449.999 276.875 447.999 276C446.249 273.938 446.249 273.937 444.999 272C441.387 272.351 441.386 272.351 438.773 274.598C436.999 276 436.999 276 433.777 275.758L429.937 275.125C425.718 274.612 422.782 274.519 419.034 276.82C417.365 278.421 415.738 280.068 414.163 281.762C411.32 284.703 408.837 285.748 404.999 287L407.999 278L404.37 278.656C402.726 278.938 401.081 279.219 399.437 279.5L397.071 279.934C394.386 280.383 391.706 280.701 388.999 281C387.829 281.169 386.659 281.339 385.454 281.514C379.859 281.994 375.188 282.204 370.552 278.761C367.103 275.791 364.088 272.452 361.062 269.062C359.977 267.911 358.889 266.763 357.798 265.619C349.999 257.364 349.999 257.364 349.999 256C367.079 256.661 384.029 259.026 400.986 261.064C403.725 261.393 406.464 261.718 409.203 262.04C411.757 262.34 414.31 262.646 416.862 262.958C425.228 263.938 433.63 264.774 441.999 263.438C444.999 263 444.999 263 447.999 264C455.934 264.368 463.586 263.267 471.437 262.188C474.214 261.817 476.991 261.452 479.769 261.086C480.464 260.994 481.16 260.902 481.876 260.807C499.575 258.462 517.145 256.55 534.999 256Z" fill="#101E2B"/>
<path d="M393.407 87.5731C394.759 87.5452 394.759 87.5452 396.138 87.5168C397.125 87.5119 398.111 87.507 399.128 87.5019C400.169 87.4854 401.21 87.4689 402.282 87.4519C405.734 87.4029 409.185 87.3776 412.637 87.3566C414.405 87.342 414.405 87.342 416.209 87.3271C422.449 87.2763 428.689 87.2435 434.929 87.2255C441.372 87.2035 447.812 87.1211 454.254 87.0244C459.21 86.961 464.166 86.9422 469.122 86.9356C471.496 86.9247 473.871 86.897 476.245 86.8522C494.807 86.5253 494.807 86.5253 500.207 90.16C502.312 92.7188 503.697 94.9681 505 98.0012C505.384 98.7681 505.768 99.5349 506.163 100.325C506.577 101.155 506.577 101.155 507 102.001C506.34 102.331 505.68 102.661 505 103.001C505 102.341 505 101.681 505 101.001C504.34 101.001 503.68 101.001 503 101.001C502.505 99.0212 502.505 99.0212 502 97.0012C501.34 97.0012 500.68 97.0012 500 97.0012C499.511 95.7822 499.511 95.7822 499.013 94.5386C497.314 91.8584 497.314 91.8584 495.014 91.5342C492.263 91.3686 489.549 91.3607 486.793 91.4018C485.744 91.3979 484.695 91.3939 483.614 91.3899C480.138 91.3831 476.663 91.4123 473.188 91.4426C470.778 91.4468 468.368 91.4491 465.958 91.4496C460.904 91.4558 455.85 91.4785 450.796 91.5141C444.309 91.5594 437.822 91.5741 431.335 91.5778C426.358 91.5823 421.381 91.5976 416.403 91.6167C414.011 91.6256 411.619 91.6323 409.227 91.6369C405.887 91.6459 402.547 91.6683 399.207 91.6948C398.213 91.6954 397.218 91.6961 396.194 91.6968C394.831 91.7117 394.831 91.7117 393.441 91.727C392.651 91.7317 391.861 91.7363 391.047 91.7411C388.69 91.8861 388.69 91.8861 386 94.0012C386 91.0012 386 91.0012 387.225 89.3404C389.442 87.6675 390.646 87.6091 393.407 87.5731Z" fill="#202C3A"/>
<path d="M537 468C538.65 468.99 540.3 469.98 542 471C537.734 475.541 532.964 479.247 528 483C528 478.926 530.092 476.883 532.5 473.812C533.144 472.974 533.144 472.974 533.801 472.119C534.861 470.741 535.93 469.37 537 468Z" fill="#246FE1"/>
<path d="M368 34C368.66 34.33 369.32 34.66 370 35C368.75 37 368.75 37 367 39C365.68 39 364.36 39 363 39C363 39.66 363 40.32 363 41C360.045 43.7438 359.225 44 355 44C355 44.66 355 45.32 355 46C353.68 45.67 352.36 45.34 351 45C353.783 43.1328 356.578 41.2836 359.375 39.4375C360.169 38.9045 360.963 38.3714 361.781 37.8223C362.542 37.3228 363.302 36.8232 364.086 36.3086C365.139 35.6095 365.139 35.6095 366.212 34.8962C366.802 34.6005 367.392 34.3047 368 34Z" fill="#25313E"/>
<path d="M798 586C804.6 586 811.2 586 818 586C818 586.66 818 587.32 818 588C808.595 588.495 808.595 588.495 799 589C798.67 588.01 798.34 587.02 798 586Z" fill="#4483E5"/>
<path d="M886 587C886.99 587.66 887.98 588.32 889 589C887.377 590.709 885.707 592.374 884 594C883.34 594 882.68 594 882 594C881.34 595.32 880.68 596.64 880 598C879.01 597.67 878.02 597.34 877 597C877.723 596.294 877.723 596.294 878.461 595.574C879.093 594.952 879.724 594.329 880.375 593.688C881.315 592.765 881.315 592.765 882.273 591.824C884.181 589.912 884.181 589.912 886 587Z" fill="#216FE3"/>
<path d="M408 310C408.99 310.33 409.98 310.66 411 311C410.01 312.485 410.01 312.485 409 314C408.5 316.457 408.5 316.457 409 319C410.896 321.314 410.896 321.314 413 323C410.767 322.615 409.163 322.105 407.25 320.875C405.295 317.942 405.689 315.422 406 312C406.66 311.34 407.32 310.68 408 310Z" fill="#172431"/>
<path d="M533 473C533.66 473 534.32 473 535 473C534.845 475.709 534.518 477.466 532.598 479.445C531.102 480.677 529.554 481.843 528 483C528 479.656 528.475 478.932 530.375 476.312C530.816 475.69 531.257 475.067 531.711 474.426C532.136 473.955 532.562 473.485 533 473Z" fill="#3377E4"/>
<path d="M71 591C74.8205 592.274 75.2302 593.626 77.1875 597.062C77.7173 597.982 78.2471 598.901 78.793 599.848C79.1913 600.558 79.5896 601.268 80 602C75.1824 600.394 73.3688 597.399 71 593C71 592.34 71 591.68 71 591Z" fill="#192533"/>
<path d="M273 95C273.33 95.99 273.66 96.98 274 98C271.69 99.32 269.38 100.64 267 102C266.34 101.34 265.68 100.68 265 100C268.96 97.525 268.96 97.525 273 95Z" fill="#1C2937"/>
<path d="M582 408C582.66 408 583.32 408 584 408C583.441 411.243 582.587 412.931 580 415C579.34 415 578.68 415 578 415C579.204 412.506 580.454 410.319 582 408Z" fill="#236DE0"/>
<path d="M349 46C349.66 46.33 350.32 46.66 351 47C350.67 47.99 350.34 48.98 350 50C347.69 50.33 345.38 50.66 343 51C343.804 50.3606 344.609 49.7213 345.438 49.0625C347.275 47.594 347.275 47.594 349 46Z" fill="#293542"/>
<path d="M256 106C256.99 106.33 257.98 106.66 259 107C257.026 109.523 256.033 109.993 252.812 110.688C251.42 110.842 251.42 110.842 250 111C250.804 110.361 251.609 109.721 252.438 109.062C254.275 107.594 254.275 107.594 256 106Z" fill="#1A2634"/>
</svg>
