<svg width="800" height="400" viewBox="0 0 800 400" fill="none" xmlns="http://www.w3.org/2000/svg">
<g filter="url(#filter0_ddddd_2928_1456)">
<path d="M299.92 253L318.096 157H336.784L354.576 253H336.912L334.736 238.024H319.888L317.584 253H299.92ZM322.448 220.744H332.176L326.288 180.296H328.592L322.448 220.744ZM384.404 276.424C377.577 276.424 372.137 274.248 368.084 269.896C364.031 265.544 362.004 259.827 362.004 252.744V249.928H378.004V254.024C378.004 255.944 378.559 257.48 379.668 258.632C380.777 259.827 382.356 260.424 384.404 260.424C386.452 260.424 388.031 259.827 389.14 258.632C390.249 257.48 390.804 255.944 390.804 254.024V233.288L393.62 237C392.297 239.731 390.399 241.864 387.924 243.4C385.492 244.936 382.484 245.704 378.9 245.704C376.127 245.704 373.439 245.085 370.836 243.848C368.276 242.611 366.164 240.392 364.5 237.192C362.836 233.949 362.004 229.32 362.004 223.304V203.336C362.004 197.32 362.836 192.691 364.5 189.448C366.164 186.205 368.276 183.987 370.836 182.792C373.439 181.555 376.127 180.936 378.9 180.936C382.484 180.936 385.492 181.704 387.924 183.24C390.399 184.733 392.297 186.867 393.62 189.64L390.804 193.352V182.6H406.804V253C406.804 257.693 405.865 261.789 403.988 265.288C402.153 268.829 399.551 271.56 396.18 273.48C392.852 275.443 388.927 276.424 384.404 276.424ZM384.404 229.704C386.452 229.704 388.031 229.128 389.14 227.976C390.249 226.781 390.804 225.224 390.804 223.304V203.336C390.804 201.416 390.249 199.88 389.14 198.728C388.031 197.533 386.452 196.936 384.404 196.936C382.356 196.936 380.777 197.533 379.668 198.728C378.559 199.88 378.004 201.416 378.004 203.336V223.304C378.004 225.224 378.559 226.781 379.668 227.976C380.777 229.128 382.356 229.704 384.404 229.704ZM442.279 254.664C437.714 254.664 433.746 253.683 430.375 251.72C427.047 249.715 424.466 246.941 422.631 243.4C420.796 239.859 419.879 235.72 419.879 230.984V204.616C419.879 199.88 420.796 195.741 422.631 192.2C424.466 188.616 427.047 185.843 430.375 183.88C433.746 181.917 437.714 180.936 442.279 180.936C449.148 180.936 454.588 183.112 458.599 187.464C462.652 191.773 464.679 197.491 464.679 204.616V221.896H433.831V207.176H448.679V203.336C448.679 201.416 448.124 199.88 447.015 198.728C445.906 197.533 444.327 196.936 442.279 196.936C440.231 196.936 438.652 197.533 437.543 198.728C436.434 199.88 435.879 201.416 435.879 203.336V232.264C435.879 234.184 436.434 235.741 437.543 236.936C438.652 238.088 440.231 238.664 442.279 238.664C444.327 238.664 445.906 238.088 447.015 236.936C448.124 235.741 448.679 234.184 448.679 232.264V229.704H464.679V230.984C464.679 238.067 462.652 243.784 458.599 248.136C454.588 252.488 449.148 254.664 442.279 254.664ZM477.427 253V182.6H493.427V193.736L490.483 190.536C491.891 187.336 493.875 184.947 496.435 183.368C498.995 181.747 501.96 180.936 505.331 180.936C510.664 180.936 514.803 182.92 517.747 186.888C520.734 190.813 522.227 196.296 522.227 203.336V253H506.227V203.336C506.227 201.416 505.672 199.88 504.563 198.728C503.454 197.533 501.875 196.936 499.827 196.936C497.779 196.936 496.2 197.533 495.091 198.728C493.982 199.88 493.427 201.416 493.427 203.336V253H477.427ZM545.926 253L527.75 182.6H545.158L557.062 234.44H553.606L564.998 182.6H582.406L564.614 253H545.926ZM610.404 254.664C605.839 254.664 601.871 253.683 598.5 251.72C595.172 249.715 592.591 246.941 590.756 243.4C588.921 239.859 588.004 235.72 588.004 230.984V204.616C588.004 199.88 588.921 195.741 590.756 192.2C592.591 188.616 595.172 185.843 598.5 183.88C601.871 181.917 605.839 180.936 610.404 180.936C617.273 180.936 622.713 183.112 626.724 187.464C630.777 191.773 632.804 197.491 632.804 204.616V230.984C632.804 238.067 630.777 243.784 626.724 248.136C622.713 252.488 617.273 254.664 610.404 254.664ZM610.404 238.664C612.452 238.664 614.031 238.088 615.14 236.936C616.249 235.741 616.804 234.184 616.804 232.264V203.336C616.804 201.416 616.249 199.88 615.14 198.728C614.031 197.533 612.452 196.936 610.404 196.936C608.356 196.936 606.777 197.533 605.668 198.728C604.559 199.88 604.004 201.416 604.004 203.336V232.264C604.004 234.184 604.559 235.741 605.668 236.936C606.777 238.088 608.356 238.664 610.404 238.664ZM651.306 276.04L657.45 253L638.122 182.6H655.53L667.434 233.16H663.978L675.37 182.6H692.778L667.434 276.04H651.306Z" fill="black"/>
</g>
<g filter="url(#filter1_ddddd_2928_1456)">
<mask id="mask0_2928_1456" style="mask-type:luminance" maskUnits="userSpaceOnUse" x="87" y="111" width="174" height="178">
<path d="M261 111H87V289H261V111Z" fill="white"/>
</mask>
<g mask="url(#mask0_2928_1456)">
<path d="M173.933 111C182.029 110.971 190.116 114.074 196.097 119.52C208.189 130.438 220.282 141.356 232.375 152.274C235.399 154.998 237.692 158.519 238.959 162.382L259.692 225.374C262.514 233.677 260.132 243.437 253.801 249.517C246.129 257.027 238.458 264.536 230.787 272.046C225.52 277.201 220.253 282.357 214.987 287.512C214.094 288.387 212.889 288.871 211.637 288.86C210.386 288.848 209.191 288.341 208.314 287.449C207.438 286.558 206.952 285.356 206.964 284.108C206.976 282.86 207.484 281.667 208.377 280.793C213.644 275.637 218.911 270.482 224.177 265.326C231.849 257.816 239.52 250.307 247.191 242.797C250.989 239.151 252.419 233.291 250.726 228.311C243.815 207.314 236.904 186.317 229.993 165.319C229.233 163.002 227.856 160.889 226.042 159.254C213.95 148.337 201.857 137.418 189.764 126.5C185.475 122.599 179.734 120.399 173.933 120.415C168.132 120.399 162.391 122.599 158.102 126.5C146.009 137.418 133.916 148.337 121.824 159.254C120.009 160.889 118.633 163.002 117.873 165.319C110.962 186.317 104.051 207.314 97.14 228.311C95.4466 233.291 96.8765 239.151 100.675 242.797C108.346 250.307 116.017 257.816 123.689 265.326C128.955 270.482 134.222 275.637 139.489 280.793C140.382 281.667 140.89 282.86 140.902 284.108C140.914 285.356 140.428 286.558 139.551 287.449C138.675 288.341 137.48 288.848 136.228 288.86C134.977 288.871 133.772 288.387 132.879 287.512C127.612 282.357 122.346 277.201 117.079 272.046C109.408 264.536 101.736 257.026 94.065 249.517C87.7341 243.437 85.3524 233.677 88.1736 225.374L108.907 162.382C110.174 158.519 112.467 154.998 115.491 152.274C127.584 141.356 139.676 130.438 151.769 119.52C157.75 114.074 165.837 110.971 173.933 111ZM218.347 181.177C222.167 181.177 225.61 183.475 227.069 186.997L229.584 193.07C231.061 196.636 230.208 200.74 227.43 203.426L213.882 216.526C213.255 217.133 213.015 218.037 213.259 218.874L220.44 243.471C221.242 246.218 220.749 249.179 219.099 251.52L196.216 283.978C194.449 286.485 191.569 287.977 188.497 287.977H159.369L159.081 287.973C156.213 287.886 153.539 286.501 151.818 284.21L151.65 283.978L128.767 251.52C127.169 249.253 126.655 246.402 127.354 243.729L127.425 243.471L134.607 218.874C134.851 218.037 134.611 217.133 133.984 216.526L120.435 203.426C117.658 200.74 116.804 196.636 118.281 193.07L120.797 186.997C122.233 183.53 125.592 181.249 129.34 181.179L129.519 181.177H218.347ZM173.97 249.932C172.226 249.92 170.48 250.22 168.84 250.815C161.132 253.608 153.424 256.402 145.715 259.195L159.369 278.562H188.497L202.016 259.386C194.349 256.542 186.681 253.697 179.014 250.853C177.403 250.255 175.688 249.942 173.97 249.932ZM127.004 196.666L140.552 209.766C143.691 212.801 144.89 217.32 143.667 221.507L136.486 246.104L140.794 252.214C141.017 252.133 141.241 252.052 141.464 251.971L166.021 243.072C168.579 242.145 171.303 241.675 174.024 241.694C176.704 241.71 179.38 242.2 181.892 243.132C190.086 246.172 198.281 249.212 206.476 252.251C206.626 252.307 206.777 252.363 206.928 252.418L211.38 246.104L204.198 221.507C202.976 217.32 204.175 212.801 207.314 209.766L220.862 196.666L218.347 190.592H206.198C204.959 194.351 201.413 197.065 197.231 197.065C193.049 197.065 189.503 194.351 188.264 190.592H159.601C158.362 194.351 154.816 197.064 150.635 197.064C146.453 197.064 142.907 194.351 141.668 190.592H129.519L127.004 196.666ZM187.204 209.422C189.159 209.422 190.743 211.003 190.743 212.953C190.743 214.903 189.159 216.483 187.204 216.483H177.472V224.427C177.472 226.377 175.887 227.957 173.933 227.957C171.978 227.957 170.394 226.377 170.394 224.427V216.483H160.662C158.707 216.483 157.123 214.903 157.123 212.953C157.123 211.003 158.707 209.422 160.662 209.422H187.204Z" fill="black"/>
</g>
</g>
<defs>
<filter id="filter0_ddddd_2928_1456" x="199.92" y="57" width="592.858" height="319.426" filterUnits="userSpaceOnUse" color-interpolation-filters="sRGB">
<feFlood flood-opacity="0" result="BackgroundImageFix"/>
<feColorMatrix in="SourceAlpha" type="matrix" values="0 0 0 0 0 0 0 0 0 0 0 0 0 0 0 0 0 0 127 0" result="hardAlpha"/>
<feOffset/>
<feGaussianBlur stdDeviation="50"/>
<feComposite in2="hardAlpha" operator="out"/>
<feColorMatrix type="matrix" values="0 0 0 0 1 0 0 0 0 1 0 0 0 0 1 0 0 0 1 0"/>
<feBlend mode="normal" in2="BackgroundImageFix" result="effect1_dropShadow_2928_1456"/>
<feColorMatrix in="SourceAlpha" type="matrix" values="0 0 0 0 0 0 0 0 0 0 0 0 0 0 0 0 0 0 127 0" result="hardAlpha"/>
<feOffset/>
<feGaussianBlur stdDeviation="50"/>
<feComposite in2="hardAlpha" operator="out"/>
<feColorMatrix type="matrix" values="0 0 0 0 0.937255 0 0 0 0 0.937255 0 0 0 0 0.937255 0 0 0 0.937255 0"/>
<feBlend mode="normal" in2="effect1_dropShadow_2928_1456" result="effect2_dropShadow_2928_1456"/>
<feColorMatrix in="SourceAlpha" type="matrix" values="0 0 0 0 0 0 0 0 0 0 0 0 0 0 0 0 0 0 127 0" result="hardAlpha"/>
<feOffset/>
<feGaussianBlur stdDeviation="50"/>
<feComposite in2="hardAlpha" operator="out"/>
<feColorMatrix type="matrix" values="0 0 0 0 0.929412 0 0 0 0 0.929412 0 0 0 0 0.929412 0 0 0 0.929412 0"/>
<feBlend mode="normal" in2="effect2_dropShadow_2928_1456" result="effect3_dropShadow_2928_1456"/>
<feColorMatrix in="SourceAlpha" type="matrix" values="0 0 0 0 0 0 0 0 0 0 0 0 0 0 0 0 0 0 127 0" result="hardAlpha"/>
<feOffset/>
<feGaussianBlur stdDeviation="50"/>
<feComposite in2="hardAlpha" operator="out"/>
<feColorMatrix type="matrix" values="0 0 0 0 0.92549 0 0 0 0 0.92549 0 0 0 0 0.92549 0 0 0 1 0"/>
<feBlend mode="normal" in2="effect3_dropShadow_2928_1456" result="effect4_dropShadow_2928_1456"/>
<feColorMatrix in="SourceAlpha" type="matrix" values="0 0 0 0 0 0 0 0 0 0 0 0 0 0 0 0 0 0 127 0" result="hardAlpha"/>
<feOffset/>
<feGaussianBlur stdDeviation="50"/>
<feComposite in2="hardAlpha" operator="out"/>
<feColorMatrix type="matrix" values="0 0 0 0 0.921569 0 0 0 0 0.921569 0 0 0 0 0.921569 0 0 0 1 0"/>
<feBlend mode="normal" in2="effect4_dropShadow_2928_1456" result="effect5_dropShadow_2928_1456"/>
<feBlend mode="normal" in="SourceGraphic" in2="effect5_dropShadow_2928_1456" result="shape"/>
</filter>
<filter id="filter1_ddddd_2928_1456" x="37" y="61" width="273.866" height="277.859" filterUnits="userSpaceOnUse" color-interpolation-filters="sRGB">
<feFlood flood-opacity="0" result="BackgroundImageFix"/>
<feColorMatrix in="SourceAlpha" type="matrix" values="0 0 0 0 0 0 0 0 0 0 0 0 0 0 0 0 0 0 127 0" result="hardAlpha"/>
<feOffset/>
<feGaussianBlur stdDeviation="25"/>
<feComposite in2="hardAlpha" operator="out"/>
<feColorMatrix type="matrix" values="0 0 0 0 1 0 0 0 0 1 0 0 0 0 1 0 0 0 1 0"/>
<feBlend mode="normal" in2="BackgroundImageFix" result="effect1_dropShadow_2928_1456"/>
<feColorMatrix in="SourceAlpha" type="matrix" values="0 0 0 0 0 0 0 0 0 0 0 0 0 0 0 0 0 0 127 0" result="hardAlpha"/>
<feOffset/>
<feGaussianBlur stdDeviation="25"/>
<feComposite in2="hardAlpha" operator="out"/>
<feColorMatrix type="matrix" values="0 0 0 0 0.937255 0 0 0 0 0.937255 0 0 0 0 0.937255 0 0 0 0.933333 0"/>
<feBlend mode="normal" in2="effect1_dropShadow_2928_1456" result="effect2_dropShadow_2928_1456"/>
<feColorMatrix in="SourceAlpha" type="matrix" values="0 0 0 0 0 0 0 0 0 0 0 0 0 0 0 0 0 0 127 0" result="hardAlpha"/>
<feOffset/>
<feGaussianBlur stdDeviation="25"/>
<feComposite in2="hardAlpha" operator="out"/>
<feColorMatrix type="matrix" values="0 0 0 0 0.929412 0 0 0 0 0.929412 0 0 0 0 0.929412 0 0 0 0.933333 0"/>
<feBlend mode="normal" in2="effect2_dropShadow_2928_1456" result="effect3_dropShadow_2928_1456"/>
<feColorMatrix in="SourceAlpha" type="matrix" values="0 0 0 0 0 0 0 0 0 0 0 0 0 0 0 0 0 0 127 0" result="hardAlpha"/>
<feOffset/>
<feGaussianBlur stdDeviation="25"/>
<feComposite in2="hardAlpha" operator="out"/>
<feColorMatrix type="matrix" values="0 0 0 0 0.92549 0 0 0 0 0.92549 0 0 0 0 0.92549 0 0 0 0.92549 0"/>
<feBlend mode="normal" in2="effect3_dropShadow_2928_1456" result="effect4_dropShadow_2928_1456"/>
<feColorMatrix in="SourceAlpha" type="matrix" values="0 0 0 0 0 0 0 0 0 0 0 0 0 0 0 0 0 0 127 0" result="hardAlpha"/>
<feOffset/>
<feGaussianBlur stdDeviation="25"/>
<feComposite in2="hardAlpha" operator="out"/>
<feColorMatrix type="matrix" values="0 0 0 0 0.921569 0 0 0 0 0.921569 0 0 0 0 0.921569 0 0 0 1 0"/>
<feBlend mode="normal" in2="effect4_dropShadow_2928_1456" result="effect5_dropShadow_2928_1456"/>
<feBlend mode="normal" in="SourceGraphic" in2="effect5_dropShadow_2928_1456" result="shape"/>
</filter>
</defs>
</svg>
