<svg width="403" height="493" viewBox="0 0 403 493" fill="none" xmlns="http://www.w3.org/2000/svg">
<path d="M214.315 0C217.402 1.17267 220.217 2.47334 223.044 4.17588C223.793 4.62503 224.541 5.07418 225.312 5.53693C226.506 6.26206 226.506 6.26206 227.724 7.00183C228.561 7.50727 229.398 8.01272 230.261 8.53348C238.188 13.3395 246.027 18.2814 253.847 23.2603C257.593 25.6431 261.349 28.0112 265.105 30.3808C269.56 33.1937 274.014 36.0075 278.466 38.8253C286.752 44.0679 295.056 49.2818 303.375 54.4719C311.599 59.6032 319.79 64.7834 327.961 69.9993C334.358 74.0782 340.784 78.1089 347.223 82.1232C397.994 113.816 397.994 113.816 401.857 128.217C402.464 132.199 402.421 136.123 402.418 140.145C402.42 141.07 402.423 141.994 402.426 142.947C402.434 146.048 402.436 149.149 402.437 152.25C402.442 154.472 402.446 156.695 402.451 158.917C402.464 164.957 402.47 170.997 402.474 177.036C402.477 180.81 402.481 184.583 402.485 188.357C402.497 198.811 402.506 209.265 402.51 219.719C402.51 220.722 402.51 220.722 402.51 221.746C402.511 222.416 402.511 223.086 402.511 223.777C402.511 225.135 402.512 226.493 402.512 227.851C402.513 228.862 402.513 228.862 402.513 229.892C402.517 240.805 402.533 251.718 402.555 262.631C402.578 273.843 402.59 285.055 402.591 296.268C402.592 302.56 402.597 308.852 402.614 315.144C402.63 321.063 402.632 326.982 402.624 332.901C402.623 335.072 402.627 337.242 402.636 339.412C402.649 342.38 402.643 345.347 402.633 348.314C402.645 349.596 402.645 349.596 402.656 350.904C402.568 362.296 398.15 369.874 390.176 377.777C386.886 380.838 383.331 383.442 379.678 386.05C378.08 387.209 376.481 388.369 374.883 389.529C374.073 390.113 373.264 390.697 372.43 391.299C368.596 394.072 364.793 396.886 360.988 399.698C359.485 400.806 357.982 401.913 356.479 403.021C355.362 403.843 355.362 403.843 354.224 404.682C347.46 409.666 347.46 409.666 345.205 411.328C343.702 412.435 342.2 413.543 340.698 414.651C336.933 417.427 333.165 420.198 329.389 422.958C319.714 430.041 310.194 437.295 300.756 444.691C297.798 447.008 294.835 449.317 291.864 451.618C290.928 452.346 289.992 453.074 289.027 453.825C286.661 455.568 284.266 457.099 281.718 458.561C285.796 449.782 292.88 442.107 298.75 434.453C307.161 423.486 315.406 412.398 323.589 401.259C324.63 399.842 325.673 398.426 326.718 397.011C327.739 395.626 328.752 394.235 329.759 392.84C332.189 389.509 334.387 386.612 337.788 384.211C341.497 381.474 345.027 378.6 348.528 375.607C352.472 372.245 356.439 368.916 360.454 365.638C361.295 364.948 362.135 364.257 363.002 363.546C364.34 362.465 365.693 361.399 367.073 360.372C370.73 357.605 372.523 354.665 373.804 350.329C374.19 347.354 374.193 344.419 374.172 341.422C374.18 340.106 374.18 340.106 374.188 338.762C374.201 335.831 374.194 332.9 374.188 329.968C374.193 327.863 374.2 325.757 374.207 323.651C374.224 317.94 374.223 312.228 374.218 306.516C374.215 301.747 374.221 296.979 374.226 292.21C374.241 280.32 374.237 268.43 374.226 256.54C374.216 246.218 374.228 235.896 374.251 225.574C374.274 214.967 374.283 204.361 374.277 193.755C374.274 187.803 374.276 181.852 374.293 175.9C374.307 170.306 374.304 164.711 374.286 159.117C374.282 157.063 374.285 155.01 374.295 152.956C374.307 150.154 374.297 147.352 374.28 144.55C374.289 143.737 374.298 142.923 374.307 142.084C374.245 136.997 373.388 134.1 370.007 130.068C367.961 128.448 366.028 127.056 363.836 125.677C363.218 125.276 362.6 124.876 361.963 124.463C356.149 120.732 350.209 117.206 344.27 113.678C337.411 109.596 330.676 105.338 323.954 101.036C314.681 95.1024 305.343 89.2762 296.001 83.4522C293.102 81.6431 290.204 79.831 287.307 78.0177C278.238 72.3427 269.163 66.6806 260.061 61.0583C255.289 58.1092 250.521 55.1539 245.773 52.1651C245.022 51.694 244.272 51.2229 243.498 50.7375C242.009 49.7903 240.528 48.8278 239.059 47.8499C235.205 45.3121 231.514 43.26 227.216 41.5622C217.314 37.2724 217.314 37.2724 214.315 32.2796C212.079 21.7252 213.219 10.6501 214.315 0Z" fill="#1461DC"/>
<path d="M185.834 0C186.49 8.16768 186.9 16.3221 186.691 24.5176C186.693 25.5486 186.694 25.5487 186.696 26.6006C186.54 30.4876 185.77 32.7951 183.18 35.5928C180.987 37.5866 179.027 38.9747 176.185 39.9082C170.584 42.0441 165.81 45.2942 160.795 48.5381C158.825 49.7689 156.852 50.9965 154.877 52.2207C145.839 57.8567 136.887 63.6281 127.923 69.3809C122.649 72.7601 117.361 76.1179 112.074 79.4775C107.515 82.3766 102.96 85.283 98.4133 88.2012C88.604 94.4962 78.7781 100.76 68.8869 106.926C61.2782 111.67 53.6788 116.429 46.1037 121.227C45.2353 121.774 44.3666 122.321 43.4719 122.885C34.2524 128.464 34.2523 128.464 29.1936 137.663C28.8058 140.623 28.8043 143.545 28.8254 146.527C28.8203 147.401 28.815 148.274 28.8098 149.174C28.7962 152.09 28.803 155.005 28.8098 157.921C28.8043 160.015 28.7979 162.11 28.7902 164.205C28.7732 169.888 28.7741 175.57 28.7795 181.253C28.7824 185.998 28.7764 190.743 28.7707 195.487C28.7566 207.32 28.7602 219.152 28.7717 230.984C28.7811 241.254 28.769 251.524 28.7463 261.793C28.7231 272.347 28.714 282.9 28.7199 293.454C28.7231 299.375 28.7206 305.297 28.7043 311.218C28.6896 316.785 28.6932 322.352 28.7111 327.919C28.7146 329.962 28.7123 332.004 28.7023 334.047C28.6898 336.836 28.7002 339.625 28.717 342.414C28.7079 343.221 28.699 344.029 28.6896 344.86C28.7569 350.294 29.8988 353.434 32.9904 357.924C34.7527 359.73 34.7527 359.731 36.7394 361.047C37.4576 361.561 38.1763 362.075 38.9162 362.605C40.0654 363.401 40.0652 363.402 41.2375 364.214C42.8763 365.384 44.5146 366.556 46.1516 367.729C46.9733 368.314 47.7951 368.898 48.6418 369.5C52.1434 372.017 55.5643 374.635 58.9787 377.269C60.3061 378.288 61.6335 379.308 62.9611 380.328C63.6394 380.85 64.318 381.371 65.0168 381.908C68.9689 384.941 72.9341 387.957 76.8977 390.975C78.5836 392.259 80.2693 393.544 81.9553 394.828C85.4258 397.471 88.8972 400.114 92.3684 402.757C96.5423 405.935 100.715 409.115 104.886 412.297C106.756 413.722 108.627 415.146 110.499 416.568C118.663 422.8 126.625 429.268 134.57 435.775C134.57 433.902 132.325 432.456 131.099 431.229C130.362 430.491 129.625 429.752 128.866 428.992C127.695 427.826 127.695 427.826 126.5 426.637C125.749 425.882 124.998 425.127 124.224 424.349C123.477 423.603 122.73 422.858 121.961 422.09C121.285 421.415 120.609 420.739 119.912 420.044C118.031 418.258 116.131 416.564 114.164 414.877C105.343 407.202 97.15 398.782 88.84 390.563C85.7603 387.517 82.6725 384.48 79.5646 381.463C76.5393 378.525 73.535 375.567 70.5451 372.594C69.4078 371.47 68.2626 370.353 67.1105 369.244C58.1425 360.597 58.1423 360.597 56.9768 356.315C56.9542 354.005 56.9541 354.004 57.673 350.329C57.8456 349.103 57.8457 349.103 58.0217 347.852C58.2603 346.846 58.2607 346.846 58.5041 345.819C59.5465 341.106 60.2627 336.379 60.9367 331.601C61.4707 328.493 61.471 328.493 62.3869 324.992C63.6516 320.091 64.225 315.113 64.8527 310.098C65.0882 308.231 65.3268 306.364 65.5686 304.498C65.6708 303.681 65.7728 302.865 65.8781 302.023C66.2172 300.011 66.2178 300.01 67.1672 298.111C67.4302 296.563 67.6505 295.008 67.8488 293.45C67.97 292.51 68.0912 291.569 68.216 290.6C68.3396 289.613 68.4637 288.626 68.591 287.609C68.7146 286.648 68.8377 285.687 68.965 284.696C69.2096 282.78 69.4388 280.861 69.6516 278.941C70.0149 276.276 70.0147 276.275 70.6154 274.162C71.2229 271.745 71.386 270.209 70.9641 267.731C69.6236 265.543 68.2472 263.454 66.7883 261.349C60.7539 252.377 61.4214 243.6 61.8264 233.137C61.8612 231.364 61.8922 229.591 61.9191 227.817C61.9959 223.554 62.1443 219.297 62.3273 215.037C62.4162 212.77 62.4694 210.504 62.5148 208.235C62.7138 201.129 62.9219 196.226 67.8791 190.889C68.8343 189.805 69.7868 188.72 70.7375 187.633C71.2397 187.079 71.7426 186.525 72.26 185.954C75.0321 182.794 77.5166 179.413 80.0422 176.055C81.0943 174.673 82.1472 173.292 83.2014 171.912C83.7049 171.252 84.2089 170.591 84.7277 169.911C86.7182 167.305 88.7196 164.707 90.7219 162.11C100.292 149.67 109.82 137.205 119.095 124.543C124.583 117.068 130.212 109.704 135.846 102.339C139.357 97.7464 142.816 93.117 146.247 88.4648C149.968 83.6919 149.968 83.6915 152.639 83.1699C153.382 83.1602 154.127 83.1506 154.893 83.1406C156.176 83.1142 156.176 83.1149 157.486 83.0879C158.422 83.0832 159.359 83.0781 160.323 83.0732C161.312 83.0576 162.3 83.0415 163.318 83.0254C166.594 82.9789 169.871 82.9555 173.148 82.9355C174.826 82.9217 174.827 82.9214 176.539 82.9072C182.463 82.8589 188.387 82.8276 194.311 82.8105C200.427 82.7896 206.541 82.7119 212.656 82.6201C217.361 82.5599 222.066 82.5415 226.772 82.5352C229.026 82.5248 231.28 82.4986 233.533 82.4561C251.173 82.1454 251.173 82.1458 256.246 85.5908C258.212 88.0094 259.518 90.228 260.832 93.041C261.775 94.3814 262.74 95.7071 263.739 97.0059C264.671 98.3137 265.6 99.6234 266.528 100.934C272.42 109.173 278.537 117.227 284.696 125.269C287.964 129.537 291.198 133.831 294.415 138.138C298.485 143.58 302.599 148.984 306.752 154.363C309.654 158.123 312.536 161.897 315.419 165.671C318.738 170.015 322.057 174.358 325.401 178.683C326.556 180.184 327.697 181.696 328.839 183.208C330.338 185.128 331.906 186.997 333.534 188.809C338.033 194.031 340.073 197.692 340.269 204.659C340.32 206.097 340.372 207.534 340.425 208.972C340.458 210.105 340.458 210.105 340.492 211.261C340.608 214.488 340.82 217.707 341.026 220.93C341.231 224.331 341.38 227.734 341.523 231.139C341.604 232.872 341.702 234.606 341.817 236.338C342.548 247.601 342.209 254.845 334.847 263.734C331.099 269.859 333.071 277.114 334.236 283.89C334.368 284.692 334.5 285.494 334.636 286.32C335.067 288.927 335.508 291.531 335.948 294.136C336.25 295.951 336.55 297.767 336.85 299.582C338.183 307.635 339.544 315.683 340.924 323.728C341.457 326.838 341.985 329.95 342.514 333.061C342.881 335.206 343.257 337.351 343.634 339.495C346.643 356.862 346.643 356.863 343.331 361.907C342.415 362.856 341.475 363.782 340.517 364.688C339.762 365.453 339.762 365.453 338.992 366.233C337.325 367.915 335.629 369.565 333.931 371.216C332.698 372.444 331.467 373.673 330.237 374.905C328.383 376.764 326.526 378.62 324.661 380.469C321.093 384.011 317.677 387.616 314.433 391.461C312.977 393.131 311.435 394.657 309.842 396.196C306.293 399.683 303.244 403.516 300.129 407.39C297.831 410.172 295.438 412.83 292.99 415.481C289.701 419.062 286.641 422.703 283.705 426.574C280.98 430.078 278.142 433.485 275.31 436.902C270.757 442.404 266.279 447.953 261.89 453.586C258.584 457.82 255.21 461.994 251.814 466.155C242.316 477.194 242.315 477.195 234.007 489.074C232.351 490.84 232.352 490.84 229.733 491.373C228.672 491.399 227.611 491.425 226.518 491.452C225.313 491.489 224.107 491.525 222.865 491.563C221.544 491.581 220.223 491.597 218.902 491.611C217.897 491.627 217.897 491.627 216.872 491.644C213.315 491.701 209.759 491.737 206.201 491.753C203.284 491.769 200.371 491.821 197.454 491.908C168.705 492.749 168.705 492.749 158.919 483.897C157.886 482.887 156.867 481.86 155.867 480.815C153.974 478.912 151.859 477.49 149.611 476.035C148.581 475.343 148.58 475.343 147.529 474.637C146.519 473.963 146.519 473.963 145.487 473.276C139.085 468.954 132.846 464.47 126.693 459.801C121.69 456.006 116.607 452.34 111.486 448.707C107.512 445.887 103.568 443.025 99.6223 440.166C94.051 436.133 88.4568 432.136 82.8312 428.18C76.4736 423.708 70.1608 419.176 63.8644 414.619C54.7231 408.003 45.5343 401.454 36.3127 394.95C34.9494 393.987 33.5861 393.024 32.2228 392.062C29.663 390.254 27.0986 388.452 24.5314 386.654C4.13316 372.322 4.13293 372.322 0.713082 359.823C0.434706 356.689 0.44058 353.565 0.446481 350.42C0.440841 349.477 0.434714 348.535 0.428903 347.563C0.412447 344.406 0.410255 341.249 0.407418 338.092C0.398628 335.827 0.388357 333.562 0.378122 331.298C0.353225 325.146 0.341567 318.994 0.3332 312.843C0.327945 308.998 0.31928 305.152 0.310739 301.307C0.287595 290.649 0.268339 279.992 0.261911 269.334C0.261494 268.653 0.261364 267.971 0.260934 267.269C0.26052 266.585 0.259408 265.902 0.258981 265.198C0.258139 263.814 0.257882 262.43 0.257028 261.046C0.256607 260.359 0.255508 259.672 0.255075 258.965C0.247584 247.849 0.215323 236.732 0.17109 225.616C0.125987 214.188 0.102012 202.76 0.0998012 191.332C0.098065 184.922 0.0875032 178.511 0.0529262 172.101C0.021582 166.068 0.0177368 160.035 0.0343716 154.002C0.0358314 151.793 0.0268107 149.584 0.00800437 147.375C-0.116142 131.88 1.08257 121.367 12.2375 109.691C18.0934 104.498 24.7105 100.367 31.2697 96.127C32.8103 95.1172 34.3506 94.1066 35.8898 93.0947C40.2901 90.2089 44.7062 87.348 49.1291 84.4971C49.7098 84.1225 50.2906 83.7473 50.8889 83.3613C56.5186 79.7326 62.1739 76.1459 67.843 72.5791C71.2748 70.4085 74.6796 68.1964 78.0842 65.9834C94.2624 55.486 110.587 45.2231 126.952 35.0205C129.79 33.2496 132.626 31.4744 135.46 29.6982C146.664 22.6794 157.897 15.712 169.172 8.80859C170.639 7.90899 170.639 7.90796 172.135 6.99023C173.042 6.4342 173.949 5.87855 174.884 5.30566C176.852 4.07218 178.763 2.79707 180.664 1.46484C182.986 -5.18048e-05 182.986 0 185.834 0ZM206.804 368.937C206.07 368.944 205.357 368.952 204.644 368.96C181.57 369.089 162.371 372.955 142.165 384.506C142.165 387.353 142.165 387.355 143.175 389.477C143.657 390.325 144.126 391.149 144.594 391.972C145.131 392.929 145.652 393.86 146.173 394.789C147.299 396.797 148.409 398.814 149.501 400.84C150.064 401.897 150.611 402.924 151.157 403.95C152.294 406.072 153.43 408.196 154.566 410.318C155.151 411.417 155.72 412.484 156.288 413.55C156.864 414.623 157.423 415.666 157.982 416.708C158.492 417.664 158.988 418.592 159.484 419.52C160.051 420.527 160.601 421.505 161.152 422.482C161.905 424.71 162.685 426.552 163.955 428.537C167.305 431.192 167.306 431.192 179.734 430.909C181.324 430.871 182.916 430.847 184.507 430.835C188.682 430.821 192.856 430.78 197.03 430.702C200.491 430.638 203.951 430.592 207.411 430.566C214.702 430.517 221.994 430.463 229.283 430.343C230 430.33 230.697 430.318 231.393 430.306C233.622 430.277 235.821 430.208 238.048 430.077C239.962 428.163 239.963 428.162 252.171 405.628C252.823 404.422 253.476 403.216 254.128 402.011C255.089 400.251 256.048 398.491 256.999 396.726C257.303 396.161 257.597 395.612 257.892 395.064C259.813 391.514 261.202 388.513 261.781 384.506C253.243 379.625 244.883 375.389 235.362 372.72C234.661 372.531 233.981 372.348 233.302 372.164C224.361 369.599 216.034 368.862 206.804 368.937ZM305.41 207.506C299.675 204.468 299.675 204.468 278.529 208.073C277.036 208.329 275.544 208.582 274.051 208.832C270.876 209.362 267.7 209.894 264.527 210.436C260.316 211.156 256.104 211.873 251.89 212.576C248.462 213.148 245.035 213.725 241.61 214.308C239.948 214.591 238.286 214.875 236.624 215.157C228.325 216.543 220.146 217.893 212.105 220.412C207.386 222.01 203.157 222.859 198.176 223.108C194.906 219.838 194.905 219.837 170.656 216.019C169.24 215.796 167.823 215.571 166.407 215.344C164.132 214.976 161.855 214.608 159.579 214.241C153.566 213.282 147.556 212.302 141.55 211.292C138.768 210.824 135.985 210.359 133.202 209.896C131.384 209.593 129.565 209.289 127.747 208.985C125.143 208.544 122.537 208.104 119.931 207.673C119.105 207.537 118.303 207.404 117.501 207.272C106.193 205.328 99.5445 203.643 93.7307 214.998C93.3903 215.684 93.0591 216.349 92.7287 217.015C92.0089 218.442 91.2901 219.871 90.5725 221.3C89.4612 223.541 88.3477 225.781 87.216 228.012C86.4734 229.473 85.7357 230.938 85.0021 232.404C84.47 233.472 84.4692 233.473 83.9475 234.52C81.5111 239.301 79.875 243.345 79.509 248.742C79.8315 249.065 80.1451 249.378 80.4582 249.691C85.419 253.93 90.124 258.325 94.7014 262.977C96.3479 264.658 97.9996 266.335 99.6535 268.01C102.768 271.16 105.884 274.312 108.985 277.476C111.195 279.734 113.41 281.987 115.633 284.233C116.496 285.104 117.334 285.95 118.172 286.796C118.994 287.641 119.793 288.463 120.591 289.283C121.368 290.064 122.122 290.822 122.876 291.579C126.482 295.247 129.923 296.951 135.097 297.347C135.846 297.324 136.573 297.302 137.3 297.28C138.064 297.263 138.806 297.245 139.547 297.228C140.114 297.205 140.665 297.183 141.216 297.161C140.441 300.089 139.887 303.019 139.376 306.003C139.07 307.808 138.731 309.608 138.367 311.402C136.811 316.621 135.818 321.691 135.045 327.067C134.429 331.354 133.777 335.509 132.646 339.695C131.643 342.992 130.884 346.246 130.269 349.634C130.044 350.943 130.044 350.944 129.823 352.227C128.73 357.544 128.106 361.699 130.165 366.842C132.038 370.215 133.56 374.243 137.328 375.722C139.771 376.016 139.771 376.016 144.52 373.296C152.831 368.434 161.218 364.876 170.484 362.276C171.524 361.996 171.524 361.996 172.544 361.721C200.404 354.132 230.446 358.459 255.849 371.511C259.668 373.548 263.123 375.388 267.478 375.962C268.384 374.581 269.288 373.197 270.178 371.806C270.551 371.221 270.913 370.654 271.276 370.087C274.521 365.169 275.589 362.123 274.655 356.246C274.453 355.26 274.256 354.303 274.06 353.347C273.83 352.213 273.607 351.111 273.384 350.011C273.009 348.196 272.634 346.382 272.264 344.566C271.735 341.961 271.205 339.355 270.673 336.751C269.295 330.009 267.946 323.262 266.599 316.514C265.862 312.82 265.124 309.125 264.385 305.432C264.249 304.751 264.117 304.089 263.985 303.429C263.614 301.576 263.614 301.575 263.251 299.76C262.989 298.448 262.989 298.447 262.732 297.161C263.321 297.172 263.894 297.183 264.467 297.194C265.248 297.203 266.007 297.212 266.766 297.221C267.912 297.238 267.912 297.237 269.035 297.254C275.27 296.996 275.271 296.996 288.816 283.599C289.718 282.7 290.595 281.827 291.471 280.955C293.833 278.607 296.195 276.257 298.553 273.904C301.009 271.452 303.469 269.004 305.936 266.563C307.873 264.647 309.806 262.727 311.735 260.803C312.653 259.885 313.573 258.968 314.492 258.051C315.407 257.148 316.295 256.272 317.183 255.396C318.022 254.553 318.838 253.735 319.653 252.917C321.833 250.746 321.834 250.746 323.488 248.742C324.392 246.306 324.586 245.409 323.795 242.924C323.43 242.184 323.075 241.465 322.721 240.746C322.317 239.912 321.924 239.101 321.531 238.291C321.087 237.406 320.657 236.546 320.226 235.688C319.344 233.894 318.46 232.1 317.577 230.307C316.308 227.762 315.045 225.217 313.822 222.649C313.15 221.22 312.472 219.791 311.79 218.365C311.316 217.375 311.316 217.374 310.851 216.403C309.34 213.146 307.735 210.275 305.41 207.506ZM185.182 290.836C186.526 290.833 187.87 290.828 189.214 290.822C192.026 290.815 194.838 290.825 197.651 290.848C201.248 290.875 204.845 290.859 208.443 290.831C211.217 290.814 213.991 290.819 216.765 290.831C218.091 290.834 219.417 290.83 220.743 290.819C222.599 290.807 224.456 290.829 226.312 290.853C227.893 290.858 227.894 290.858 229.507 290.863C233.281 291.663 234.712 293.244 237.099 296.214C237.811 299.476 237.811 299.478 237.099 302.859C235.17 305.192 233.068 307.027 230.453 308.556H227.606C227.136 306.676 227.136 306.675 226.656 304.758H210.518C209.327 307.14 209.418 308.855 209.368 311.519C209.328 312.967 209.328 312.968 209.286 314.446C209.237 316.488 209.195 318.531 209.16 320.573C209.116 322.024 209.116 322.025 209.071 323.505C209.053 324.392 209.033 325.281 209.014 326.195C208.554 328.869 207.914 329.729 205.771 331.341C203.932 331.719 203.931 331.72 201.974 331.697C201.005 331.708 201.004 331.708 200.016 331.72C197.581 331.219 196.852 330.447 195.328 328.493C194.948 326.196 194.948 326.194 194.909 323.505C194.884 322.538 194.859 321.57 194.833 320.573C194.82 319.565 194.807 318.555 194.794 317.516C194.762 315.517 194.721 313.517 194.672 311.519C194.66 310.632 194.648 309.745 194.636 308.832C194.584 306.471 194.583 306.47 192.48 304.758C189.874 304.62 187.368 304.581 184.767 304.64C183.693 304.652 183.692 304.652 182.597 304.665C180.828 304.687 179.059 304.722 177.29 304.758C176.977 306.011 176.664 307.265 176.341 308.556C173.08 308.276 171.573 307.589 168.925 305.589C166.849 302.86 166.848 302.858 166.255 299.536C167.412 293.058 171.375 290.875 177.636 290.853C178.836 290.838 180.038 290.822 181.275 290.807C182.577 290.815 183.88 290.825 185.182 290.836ZM289.313 243.048C284.899 248.347 280.197 253.256 275.31 258.119C274.582 258.851 273.854 259.583 273.104 260.337C272.408 261.032 271.711 261.727 270.993 262.443C270.364 263.072 269.733 263.702 269.084 264.35C265.196 267.94 260.298 267.13 255.273 266.933C248.533 266.435 241.847 265.114 235.2 263.935C236.14 266.754 237.08 269.574 238.048 272.479C233.243 271.238 230.321 269.035 226.775 265.715C222.33 261.676 222.329 261.676 216.629 260.374C213.272 260.899 213.272 260.899 210.518 262.985C208.619 262.867 208.618 262.866 206.72 262.035C205.059 260.078 205.058 260.077 203.872 258.238C200.442 258.571 200.442 258.571 197.961 260.704C196.278 262.035 196.277 262.036 193.218 261.806C191.414 261.508 191.413 261.508 189.572 261.205C185.568 260.718 182.781 260.63 179.223 262.814C177.638 264.334 176.094 265.898 174.599 267.506C171.9 270.298 169.542 271.29 165.899 272.479C166.838 269.659 167.778 266.839 168.746 263.935C167.61 264.14 166.473 264.346 165.302 264.558C163.741 264.825 162.179 265.092 160.618 265.358C159.507 265.562 159.506 265.563 158.372 265.771C155.823 266.197 153.278 266.498 150.709 266.782C149.599 266.943 148.488 267.104 147.344 267.27C142.033 267.726 137.597 267.925 133.196 264.656C129.922 261.837 127.06 258.667 124.187 255.449C123.158 254.357 122.125 253.266 121.089 252.18C113.688 244.345 113.685 244.342 113.685 243.048C129.9 243.675 145.991 245.92 162.089 247.855C164.689 248.168 167.289 248.477 169.89 248.782C172.314 249.067 174.738 249.358 177.161 249.654C185.103 250.585 193.079 251.377 201.025 250.108C203.872 249.693 203.872 249.693 206.72 250.643C214.253 250.992 221.517 249.946 228.97 248.922C231.606 248.57 234.243 248.223 236.88 247.876C237.54 247.788 238.201 247.701 238.881 247.611C255.684 245.386 272.363 243.57 289.313 243.048Z" fill="#101E2B"/>
</svg>
