<svg width="590" height="605" viewBox="0 0 590 605" fill="none" xmlns="http://www.w3.org/2000/svg">
<path
    d="M294.773 0.000684584C322.224 -0.0978661 349.647 10.448 369.926 28.9587C410.929 66.067 451.934 103.176 492.938 140.284C503.191 149.543 510.968 161.512 515.264 174.642L585.565 388.743C595.132 416.963 587.056 450.137 565.589 470.802C539.577 496.327 513.565 521.851 487.553 547.375C469.695 564.898 451.836 582.421 433.979 599.944C430.95 602.916 426.864 604.563 422.621 604.523C418.378 604.483 414.325 602.759 411.353 599.73C408.381 596.701 406.733 592.616 406.773 588.373C406.814 584.13 408.538 580.076 411.566 577.104C429.424 559.581 447.283 542.058 465.141 524.535C491.153 499.011 517.165 473.486 543.177 447.962C556.056 435.57 560.904 415.651 555.162 398.726C531.728 327.359 508.294 255.992 484.86 184.625C482.283 176.747 477.616 169.566 471.465 164.01C430.461 126.902 389.457 89.7927 348.453 52.6843C333.909 39.4236 314.443 31.9466 294.773 32.0007C275.102 31.9466 255.636 39.4235 241.092 52.6843C200.088 89.7927 159.084 126.902 118.08 164.01C111.928 169.566 107.262 176.747 104.685 184.625C81.2507 255.992 57.8168 327.359 34.3829 398.726C28.6409 415.651 33.4893 435.57 46.3682 447.962C72.3802 473.486 98.3923 499.011 124.404 524.535C142.262 542.058 160.121 559.581 177.979 577.104C181.007 580.076 182.731 584.13 182.772 588.373C182.812 592.616 181.164 596.701 178.192 599.73C175.22 602.759 171.167 604.483 166.924 604.523C162.681 604.563 158.595 602.916 155.566 599.944C137.709 582.421 119.85 564.898 101.992 547.375C75.9802 521.85 49.9681 496.326 23.9561 470.801C2.48934 450.136 -5.58673 416.963 3.97953 388.743L74.2813 174.642C78.5773 161.512 86.3544 149.543 96.6075 140.284C137.611 103.176 178.615 66.067 219.619 28.9587C239.898 10.448 267.321 -0.0978581 294.773 0.000684584ZM445.371 238.524C458.324 238.524 469.999 246.333 474.945 258.303L483.476 278.945C488.484 291.066 485.589 305.016 476.172 314.144L430.233 358.67C428.105 360.733 427.291 363.805 428.12 366.651L452.47 450.252C455.189 459.588 453.516 469.655 447.922 477.609L370.331 587.932C364.338 596.453 354.573 601.524 344.156 601.524H245.389L244.414 601.509C234.689 601.214 225.622 596.506 219.786 588.721L219.214 587.932L141.623 477.609C136.204 469.904 134.464 460.216 136.833 451.13L137.075 450.252L161.425 366.651C162.254 363.805 161.44 360.733 159.312 358.67L113.373 314.144C103.956 305.016 101.061 291.066 106.069 278.945L114.6 258.303C119.469 246.52 130.858 238.769 143.567 238.53L144.174 238.524H445.371ZM294.899 472.212C288.984 472.171 283.065 473.193 277.505 475.215C251.367 484.708 225.229 494.202 199.092 503.696L245.389 569.524H344.156L389.996 504.345C363.998 494.679 337.999 485.011 312 475.344C306.54 473.312 300.725 472.248 294.899 472.212ZM135.644 291.167L181.583 335.692C192.228 346.009 196.294 361.368 192.148 375.6L167.799 459.201L182.404 479.968C183.162 479.693 183.92 479.418 184.678 479.143L267.945 448.897C276.617 445.744 285.854 444.148 295.081 444.212C304.167 444.267 313.243 445.931 321.759 449.1C349.546 459.432 377.333 469.764 405.12 480.095C405.63 480.285 406.141 480.474 406.651 480.664L421.747 459.201L397.397 375.6C393.251 361.368 397.317 346.009 407.962 335.692L453.901 291.167L445.371 270.524H404.177C399.977 283.3 387.953 292.524 373.773 292.524C359.592 292.524 347.568 283.3 343.368 270.524H246.176C241.976 283.298 229.952 292.521 215.773 292.521C201.593 292.521 189.569 283.298 185.369 270.524H144.174L135.644 291.167ZM339.773 334.524C346.4 334.524 351.772 339.897 351.773 346.524C351.773 353.152 346.4 358.524 339.773 358.524H306.773V385.524C306.773 392.152 301.4 397.524 294.773 397.524C288.145 397.524 282.773 392.152 282.773 385.524V358.524H249.773C243.145 358.524 237.773 353.152 237.773 346.524C237.773 339.897 243.145 334.524 249.773 334.524H339.773Z"
    fill="black"
  />
</svg>
